<?xml version="1.0" encoding="UTF-8"?>
<svg xmlns="http://www.w3.org/2000/svg" version="1.1" viewBox="0 0 600 150">
  <defs>
    <style>
      .cls-1 {
        fill: "currentColor";
      }
    </style>
  </defs>
  <!-- Generator: Adobe Illustrator 28.7.8, SVG Export Plug-In . SVG Version: 1.2.0 Build 200)  -->
  <g>
    <g id="Layer_2">
      <g>
        <g>
          <g>
            <path class="cls-1" d="M165.79,23.46v1.33c-1.09.04-1.91.27-2.47.66-.56.4-.94,1.04-1.13,1.92-.19.89-.29,2.15-.29,3.78v19.98c0,3.1-.14,5.8-.43,8.1-.29,2.3-.8,4.29-1.54,5.97-.8,1.86-1.97,3.35-3.51,4.48-1.54,1.13-3.3,1.69-5.29,1.69-1.54,0-3-.26-4.4-.76-1.39-.51-2.62-1.45-3.68-2.82-.93-1.24-1.66-2.54-2.19-3.92-.53-1.37-.89-3.05-1.08-5.04-.19-1.99-.29-4.49-.29-7.5v-20.84c0-1.64-.1-2.84-.29-3.62-.19-.77-.57-1.3-1.13-1.59-.56-.29-1.39-.45-2.47-.5v-1.33c.67.04,1.55.09,2.64.13,1.09.04,2.26.07,3.51.07,1.12,0,2.23-.02,3.34-.07,1.11-.04,2.03-.09,2.76-.13v1.33c-1.09.04-1.91.21-2.47.5-.56.29-.94.82-1.13,1.59-.19.77-.29,1.98-.29,3.62v21.97c0,2.26.08,4.39.24,6.4.16,2.01.49,3.78.99,5.31.5,1.53,1.26,2.72,2.28,3.58,1.02.86,2.39,1.29,4.08,1.29,2.43,0,4.32-.74,5.65-2.22,1.33-1.48,2.26-3.53,2.79-6.14.53-2.61.79-5.55.79-8.83v-20.71c0-1.64-.14-2.9-.41-3.78-.27-.88-.73-1.53-1.37-1.92-.64-.4-1.51-.62-2.6-.66v-1.33c.58.04,1.34.09,2.28.13.94.04,1.82.07,2.62.07s1.66-.02,2.47-.07c.82-.04,1.48-.09,1.99-.13Z"/>
            <path class="cls-1" d="M183.9,35.34c1.22,0,2.23.22,3.05.66.82.44,1.5,1.06,2.04,1.86.61.89,1.04,1.99,1.3,3.32.26,1.33.38,3.12.38,5.38v17.72c0,1.86.28,3.12.84,3.78.56.66,1.5,1,2.81,1v1.39c-.55-.04-1.38-.1-2.5-.17-1.12-.07-2.21-.1-3.27-.1s-2.09.03-3.1.1-1.77.12-2.28.17v-1.39c1.15,0,1.97-.33,2.45-1,.48-.66.72-1.92.72-3.78v-19.18c0-1.37-.08-2.63-.24-3.78-.16-1.15-.52-2.08-1.08-2.79-.56-.71-1.42-1.06-2.57-1.06-1.35,0-2.52.53-3.53,1.59-1.01,1.06-1.79,2.51-2.35,4.35-.56,1.84-.84,3.88-.84,6.14v14.73c0,1.86.24,3.12.72,3.78.48.66,1.3,1,2.45,1v1.39c-.51-.04-1.27-.1-2.28-.17-1.01-.07-2.04-.1-3.1-.1s-2.15.03-3.27.1c-1.12.07-1.95.12-2.5.17v-1.39c1.31,0,2.25-.33,2.81-1,.56-.66.84-1.92.84-3.78v-20.77c0-1.99-.26-3.46-.77-4.41-.51-.95-1.47-1.43-2.88-1.43v-1.39c1.02.13,2.02.2,2.98.2s1.82-.08,2.67-.23c.85-.15,1.63-.39,2.33-.7v7.83c.83-3.01,1.99-5.1,3.48-6.27,1.49-1.17,3.05-1.76,4.69-1.76Z"/>
            <path class="cls-1" d="M204.42,35.54v28.74c0,1.86.28,3.12.84,3.78.56.66,1.5,1,2.81,1v1.39c-.55-.04-1.37-.1-2.47-.17-1.11-.07-2.22-.1-3.34-.1s-2.19.03-3.32.1c-1.12.07-1.95.12-2.5.17v-1.39c1.31,0,2.25-.33,2.81-1,.56-.66.84-1.92.84-3.78v-20.77c0-1.99-.26-3.46-.77-4.41-.51-.95-1.47-1.43-2.88-1.43v-1.39c1.02.13,2.02.2,2.98.2s1.82-.08,2.67-.23c.85-.15,1.63-.39,2.33-.7ZM201.92,19.68c.83,0,1.55.42,2.16,1.26.61.84.91,1.84.91,2.99s-.3,2.15-.91,2.99c-.61.84-1.33,1.26-2.16,1.26s-1.55-.42-2.16-1.26c-.61-.84-.91-1.84-.91-2.99s.3-2.15.91-2.99c.61-.84,1.33-1.26,2.16-1.26Z"/>
            <path class="cls-1" d="M221.67,35.34c1.99,0,3.59.59,4.81,1.76,1.22,1.17,2.16,3.11,2.84,5.81l-.96-.73c-.61-1.81-1.46-3.15-2.55-4.02-1.09-.86-2.34-1.29-3.75-1.29-1.89,0-3.36,1.35-4.42,4.05-1.06,2.7-1.59,6.86-1.59,12.48,0,3.54.26,6.5.77,8.89.51,2.39,1.27,4.17,2.26,5.34.99,1.17,2.19,1.76,3.6,1.76s2.58-.91,3.7-2.72c1.12-1.81,1.78-4.49,1.97-8.03l.58.93c-.22,3.76-1.05,6.67-2.47,8.73-1.43,2.06-3.15,3.09-5.17,3.09-1.83,0-3.49-.65-5-1.96-1.51-1.3-2.7-3.3-3.58-5.97-.88-2.68-1.32-6.03-1.32-10.05s.46-7.38,1.37-10.05c.91-2.68,2.15-4.68,3.7-6.01,1.55-1.33,3.29-1.99,5.21-1.99ZM231.86,35.21l.82.46c-.13.58-.22,1.19-.26,1.86-.05.66-.07,1.33-.07,1.99v37.43c0,1.59.24,2.68.72,3.25.48.57,1.3.86,2.45.86v1.39c-.51-.04-1.25-.1-2.21-.17-.96-.07-1.95-.1-2.98-.1-1.38,0-2.7.03-3.96.1-1.27.07-2.25.12-2.96.17v-1.39c1.44,0,2.57-.32,3.39-.96.82-.64,1.23-1.91,1.23-3.82v-35.51c.45-.62.88-1.24,1.3-1.86.42-.62.84-1.24,1.27-1.86.43-.62.86-1.24,1.27-1.86Z"/>
            <path class="cls-1" d="M259.4,35.54v27.74c0,1.99.26,3.46.79,4.41.53.95,1.48,1.43,2.86,1.43v1.39c-.99-.13-1.99-.2-2.98-.2-.93,0-1.82.07-2.67.2-.85.13-1.63.38-2.33.73v-7.83c-.8,2.88-1.93,4.92-3.39,6.14-1.46,1.22-2.96,1.82-4.49,1.82-1.12,0-2.1-.22-2.93-.66-.83-.44-1.52-1.06-2.07-1.86-.61-.88-1.03-2.03-1.25-3.45-.22-1.42-.34-3.16-.34-5.24v-16.66c0-1.99-.26-3.46-.77-4.41-.51-.95-1.47-1.43-2.88-1.43v-1.39c1.02.13,2.02.2,2.98.2s1.82-.08,2.67-.23c.85-.15,1.63-.39,2.33-.7v26.08c0,1.37.06,2.63.19,3.78.13,1.15.45,2.08.96,2.79.51.71,1.35,1.06,2.5,1.06,1.25,0,2.36-.53,3.34-1.59.98-1.06,1.75-2.5,2.31-4.31.56-1.81.84-3.85.84-6.11v-13.74c0-1.99-.26-3.46-.77-4.41-.51-.95-1.47-1.43-2.88-1.43v-1.39c1.02.13,2.02.2,2.98.2s1.82-.08,2.67-.23c.85-.15,1.63-.39,2.33-.7Z"/>
            <path class="cls-1" d="M277.18,35.34c2.82,0,5.02,1.18,6.61,3.55,1.59,2.37,2.38,6.05,2.38,11.05h-16.96l-.05-1.26h12.4c.06-2.17-.06-4.17-.38-6.01-.32-1.84-.83-3.31-1.51-4.41-.69-1.11-1.58-1.66-2.67-1.66-1.47,0-2.78,1.02-3.92,3.05-1.14,2.04-1.82,5.27-2.04,9.69l.14.27c-.06.66-.11,1.39-.14,2.19-.03.8-.05,1.59-.05,2.39,0,3.01.35,5.6,1.06,7.76.7,2.17,1.63,3.82,2.76,4.94,1.14,1.13,2.31,1.69,3.53,1.69.96,0,1.87-.21,2.74-.63.87-.42,1.67-1.12,2.4-2.09.74-.97,1.38-2.28,1.92-3.92l.96.53c-.35,1.46-.93,2.88-1.73,4.25-.8,1.37-1.81,2.49-3.03,3.35-1.22.86-2.63,1.29-4.23,1.29-2.31,0-4.28-.73-5.93-2.19-1.65-1.46-2.92-3.48-3.8-6.07-.88-2.59-1.32-5.56-1.32-8.93,0-3.89.45-7.24,1.35-10.05.9-2.81,2.16-4.98,3.8-6.5,1.63-1.53,3.54-2.29,5.72-2.29Z"/>
            <path class="cls-1" d="M302.4,23.46c.67.04,1.55.09,2.64.13,1.09.04,2.16.07,3.22.07,1.51,0,2.95-.02,4.33-.07,1.38-.04,2.35-.07,2.93-.07,3.36,0,5.89.97,7.59,2.92,1.7,1.95,2.55,4.45,2.55,7.5,0,1.55-.23,3.06-.7,4.55-.46,1.48-1.23,2.83-2.31,4.05-1.07,1.22-2.51,2.2-4.3,2.95v.13c2.53.44,4.51,1.27,5.93,2.49,1.43,1.22,2.43,2.64,3,4.28.58,1.64.87,3.36.87,5.18,0,2.52-.46,4.75-1.37,6.67-.91,1.92-2.23,3.44-3.96,4.55-1.73,1.11-3.8,1.66-6.2,1.66-.71,0-1.76-.03-3.17-.1-1.41-.07-3.11-.1-5.09-.1-1.12,0-2.23.01-3.32.03-1.09.02-1.97.08-2.64.17v-1.33c1.09-.09,1.91-.27,2.47-.53.56-.27.94-.8,1.13-1.59.19-.8.29-1.99.29-3.58V30.49c0-1.64-.1-2.84-.29-3.62-.19-.77-.57-1.3-1.13-1.59-.56-.29-1.39-.45-2.47-.5v-1.33ZM314.32,24.79c-1.47,0-2.44.38-2.88,1.13-.45.75-.67,2.28-.67,4.58v32.92c0,1.55.1,2.72.29,3.52s.54,1.33,1.06,1.59c.51.27,1.27.4,2.26.4,3.14,0,5.42-1.01,6.85-3.02,1.42-2.01,2.14-4.88,2.14-8.59,0-3.41-.67-6.04-1.99-7.9-1.33-1.86-3.52-2.79-6.56-2.79h-4.95v-1.13h4.13c1.89,0,3.35-.5,4.37-1.49,1.02-1,1.73-2.32,2.11-3.98.38-1.66.58-3.44.58-5.34,0-3.27-.52-5.74-1.56-7.4-1.04-1.66-2.76-2.49-5.17-2.49Z"/>
            <path class="cls-1" d="M353.53,35.54v27.74c0,1.99.26,3.46.79,4.41.53.95,1.48,1.43,2.86,1.43v1.39c-.99-.13-1.99-.2-2.98-.2-.93,0-1.82.07-2.67.2-.85.13-1.63.38-2.33.73v-7.83c-.8,2.88-1.93,4.92-3.39,6.14-1.46,1.22-2.96,1.82-4.49,1.82-1.12,0-2.1-.22-2.93-.66-.83-.44-1.52-1.06-2.07-1.86-.61-.88-1.03-2.03-1.25-3.45-.22-1.42-.34-3.16-.34-5.24v-16.66c0-1.99-.26-3.46-.77-4.41-.51-.95-1.47-1.43-2.88-1.43v-1.39c1.02.13,2.02.2,2.98.2s1.82-.08,2.67-.23c.85-.15,1.63-.39,2.33-.7v26.08c0,1.37.06,2.63.19,3.78.13,1.15.45,2.08.96,2.79.51.71,1.35,1.06,2.5,1.06,1.25,0,2.36-.53,3.34-1.59.98-1.06,1.75-2.5,2.31-4.31.56-1.81.84-3.85.84-6.11v-13.74c0-1.99-.26-3.46-.77-4.41-.51-.95-1.47-1.43-2.88-1.43v-1.39c1.02.13,2.02.2,2.98.2s1.82-.08,2.67-.23c.85-.15,1.63-.39,2.33-.7Z"/>
            <path class="cls-1" d="M367.37,25.25v11.08h7.11v1.33h-7.11v25.68c0,2.08.27,3.54.82,4.38.54.84,1.3,1.26,2.26,1.26s1.79-.54,2.5-1.63c.7-1.08,1.31-2.91,1.83-5.48l.96.33c-.32,2.57-.95,4.73-1.9,6.5-.95,1.77-2.4,2.65-4.35,2.65-1.09,0-1.99-.19-2.69-.56-.71-.38-1.33-.92-1.87-1.63-.71-1.02-1.19-2.23-1.47-3.65-.27-1.42-.41-3.3-.41-5.64v-22.23h-4.61v-1.33h4.61v-10.15c.8-.04,1.57-.13,2.31-.27.74-.13,1.41-.35,2.02-.66Z"/>
            <path class="cls-1" d="M384.29,18.42v45.86c0,1.86.28,3.12.84,3.78.56.66,1.5,1,2.81,1v1.39c-.55-.04-1.37-.1-2.47-.17-1.11-.07-2.22-.1-3.34-.1s-2.19.03-3.32.1c-1.12.07-1.95.12-2.5.17v-1.39c1.31,0,2.25-.33,2.81-1,.56-.66.84-1.92.84-3.78V26.38c0-1.99-.26-3.46-.77-4.41-.51-.95-1.47-1.43-2.88-1.43v-1.39c1.02.13,2.02.2,2.98.2s1.82-.08,2.67-.23c.85-.15,1.63-.39,2.33-.7Z"/>
            <path class="cls-1" d="M401.59,35.34c2.82,0,5.02,1.18,6.61,3.55,1.59,2.37,2.38,6.05,2.38,11.05h-16.96l-.05-1.26h12.4c.06-2.17-.06-4.17-.38-6.01-.32-1.84-.83-3.31-1.51-4.41-.69-1.11-1.58-1.66-2.67-1.66-1.47,0-2.78,1.02-3.92,3.05-1.14,2.04-1.82,5.27-2.04,9.69l.14.27c-.06.66-.11,1.39-.14,2.19-.03.8-.05,1.59-.05,2.39,0,3.01.35,5.6,1.06,7.76.7,2.17,1.63,3.82,2.76,4.94,1.14,1.13,2.31,1.69,3.53,1.69.96,0,1.87-.21,2.74-.63.87-.42,1.67-1.12,2.4-2.09.74-.97,1.38-2.28,1.92-3.92l.96.53c-.35,1.46-.93,2.88-1.73,4.25-.8,1.37-1.81,2.49-3.03,3.35-1.22.86-2.63,1.29-4.23,1.29-2.31,0-4.29-.73-5.93-2.19-1.65-1.46-2.92-3.48-3.8-6.07-.88-2.59-1.32-5.56-1.32-8.93,0-3.89.45-7.24,1.35-10.05.9-2.81,2.16-4.98,3.8-6.5s3.54-2.29,5.72-2.29Z"/>
            <path class="cls-1" d="M429.17,35.34c.87,0,1.63.24,2.28.73.66.49,1.17,1.12,1.54,1.89.37.77.55,1.65.55,2.62,0,1.11-.25,2.08-.74,2.92-.5.84-1.16,1.26-1.99,1.26-.67,0-1.27-.3-1.78-.9-.51-.6-.77-1.45-.77-2.56,0-.84.17-1.56.5-2.16.34-.6.71-1.07,1.13-1.43-.22-.44-.56-.66-1.01-.66-.99,0-1.91.41-2.74,1.23-.83.82-1.54,1.87-2.11,3.15-.58,1.28-1.03,2.64-1.35,4.08-.32,1.44-.48,2.78-.48,4.02v14.07c0,2.17.46,3.62,1.37,4.35.91.73,2.15,1.1,3.72,1.1v1.39c-.74-.04-1.78-.1-3.12-.17s-2.77-.1-4.28-.1c-1.09,0-2.17.03-3.24.1-1.07.07-1.88.12-2.43.17v-1.39c1.31,0,2.25-.33,2.81-1,.56-.66.84-1.92.84-3.78v-20.77c0-1.99-.26-3.46-.77-4.41-.51-.95-1.47-1.43-2.88-1.43v-1.39c1.02.13,2.02.2,2.98.2s1.82-.08,2.67-.23c.85-.15,1.63-.39,2.33-.7v8.3c.35-1.28.86-2.58,1.51-3.88.66-1.3,1.45-2.4,2.38-3.29.93-.88,1.95-1.33,3.08-1.33Z"/>
            <path class="cls-1" d="M457.47,22.73c1.6,0,2.82.26,3.65.76.83.51,1.57,1.07,2.21,1.69.38.31.7.54.94.7.24.16.47.23.7.23.32,0,.55-.24.7-.73.14-.49.26-1.22.36-2.19h1.11c-.03.75-.07,1.65-.12,2.69-.05,1.04-.08,2.41-.1,4.11-.02,1.7-.02,3.95-.02,6.74h-1.11c-.1-2.12-.43-4.16-1.01-6.11-.58-1.95-1.42-3.54-2.52-4.78-1.11-1.24-2.56-1.86-4.35-1.86-1.7,0-3.1.71-4.2,2.12-1.11,1.42-1.66,3.27-1.66,5.57,0,1.99.37,3.66,1.11,5.01.74,1.35,1.72,2.57,2.96,3.65,1.23,1.08,2.57,2.25,4.01,3.48,1.67,1.42,3.15,2.82,4.45,4.21,1.3,1.39,2.32,2.93,3.08,4.61.75,1.68,1.13,3.72,1.13,6.11,0,2.83-.46,5.18-1.39,7.03-.93,1.86-2.16,3.25-3.7,4.18-1.54.93-3.24,1.39-5.09,1.39-1.7,0-3.04-.27-4.04-.8-.99-.53-1.84-1.08-2.55-1.66-.71-.62-1.25-.93-1.63-.93-.32,0-.55.24-.7.73-.14.49-.26,1.22-.36,2.19h-1.11c.06-.93.1-2.02.12-3.29.02-1.26.03-2.91.05-4.94.02-2.03.02-4.6.02-7.7h1.11c.13,2.65.49,5.13,1.08,7.43.59,2.3,1.51,4.15,2.74,5.54,1.23,1.39,2.88,2.09,4.93,2.09,1.06,0,2.06-.3,3-.9.94-.6,1.72-1.55,2.33-2.85.61-1.3.91-3,.91-5.08,0-1.81-.31-3.4-.94-4.75-.62-1.35-1.5-2.61-2.62-3.78-1.12-1.17-2.44-2.38-3.94-3.62-1.51-1.28-2.92-2.59-4.23-3.92-1.31-1.33-2.36-2.86-3.15-4.61-.79-1.75-1.18-3.86-1.18-6.34,0-2.61.42-4.77,1.27-6.47.85-1.7,1.96-2.96,3.34-3.78,1.38-.82,2.85-1.23,4.42-1.23Z"/>
            <path class="cls-1" d="M484.19,35.34c2.82,0,5.02,1.18,6.61,3.55,1.59,2.37,2.38,6.05,2.38,11.05h-16.96l-.05-1.26h12.4c.06-2.17-.06-4.17-.38-6.01-.32-1.84-.83-3.31-1.51-4.41-.69-1.11-1.58-1.66-2.67-1.66-1.47,0-2.78,1.02-3.92,3.05-1.14,2.04-1.82,5.27-2.04,9.69l.14.27c-.06.66-.11,1.39-.14,2.19-.03.8-.05,1.59-.05,2.39,0,3.01.35,5.6,1.06,7.76.7,2.17,1.63,3.82,2.76,4.94,1.14,1.13,2.31,1.69,3.53,1.69.96,0,1.87-.21,2.74-.63.87-.42,1.67-1.12,2.4-2.09.74-.97,1.38-2.28,1.92-3.92l.96.53c-.35,1.46-.93,2.88-1.73,4.25-.8,1.37-1.81,2.49-3.03,3.35-1.22.86-2.63,1.29-4.23,1.29-2.31,0-4.29-.73-5.93-2.19-1.65-1.46-2.92-3.48-3.8-6.07-.88-2.59-1.32-5.56-1.32-8.93,0-3.89.45-7.24,1.35-10.05.9-2.81,2.16-4.98,3.8-6.5s3.54-2.29,5.72-2.29Z"/>
            <path class="cls-1" d="M511.77,35.34c.87,0,1.63.24,2.28.73.66.49,1.17,1.12,1.54,1.89.37.77.55,1.65.55,2.62,0,1.11-.25,2.08-.74,2.92-.5.84-1.16,1.26-1.99,1.26-.67,0-1.27-.3-1.78-.9-.51-.6-.77-1.45-.77-2.56,0-.84.17-1.56.5-2.16.34-.6.71-1.07,1.13-1.43-.22-.44-.56-.66-1.01-.66-.99,0-1.91.41-2.74,1.23-.83.82-1.54,1.87-2.11,3.15-.58,1.28-1.03,2.64-1.35,4.08-.32,1.44-.48,2.78-.48,4.02v14.07c0,2.17.46,3.62,1.37,4.35.91.73,2.15,1.1,3.72,1.1v1.39c-.74-.04-1.78-.1-3.12-.17s-2.77-.1-4.28-.1c-1.09,0-2.17.03-3.24.1-1.07.07-1.88.12-2.43.17v-1.39c1.31,0,2.25-.33,2.81-1,.56-.66.84-1.92.84-3.78v-20.77c0-1.99-.26-3.46-.77-4.41-.51-.95-1.47-1.43-2.88-1.43v-1.39c1.02.13,2.02.2,2.98.2s1.82-.08,2.67-.23c.85-.15,1.63-.39,2.33-.7v8.3c.35-1.28.86-2.58,1.51-3.88.66-1.3,1.45-2.4,2.38-3.29.93-.88,1.95-1.33,3.08-1.33Z"/>
            <path class="cls-1" d="M540.17,36.27v1.33c-.61.09-1.17.46-1.68,1.13-.51.66-.99,1.84-1.44,3.52l-7.88,28.54h-.82l-8.84-29.4c-.51-1.73-1.02-2.78-1.51-3.15-.5-.38-.92-.56-1.27-.56v-1.39c.64.04,1.31.1,1.99.17.69.07,1.43.1,2.23.1.99,0,2.04-.02,3.15-.07,1.11-.04,2.14-.11,3.1-.2v1.39c-.8,0-1.51.08-2.14.23-.62.16-1.03.59-1.2,1.29-.18.71-.02,1.92.46,3.65l6.01,20.51-.29.33,5.48-19.84c.42-1.46.58-2.62.5-3.48-.08-.86-.4-1.52-.96-1.96-.56-.44-1.42-.71-2.57-.8v-1.33c.58.04,1.07.08,1.49.1.42.02.82.04,1.23.07.4.02.84.03,1.32.03.74,0,1.4-.02,1.99-.07.59-.04,1.14-.09,1.66-.13Z"/>
            <path class="cls-1" d="M549.69,35.54v28.74c0,1.86.28,3.12.84,3.78.56.66,1.5,1,2.81,1v1.39c-.55-.04-1.37-.1-2.47-.17-1.11-.07-2.22-.1-3.34-.1s-2.19.03-3.32.1c-1.12.07-1.95.12-2.5.17v-1.39c1.31,0,2.25-.33,2.81-1,.56-.66.84-1.92.84-3.78v-20.77c0-1.99-.26-3.46-.77-4.41-.51-.95-1.47-1.43-2.88-1.43v-1.39c1.02.13,2.02.2,2.98.2s1.82-.08,2.67-.23c.85-.15,1.63-.39,2.33-.7ZM547.19,19.68c.83,0,1.55.42,2.16,1.26.61.84.91,1.84.91,2.99s-.31,2.15-.91,2.99c-.61.84-1.33,1.26-2.16,1.26s-1.55-.42-2.16-1.26c-.61-.84-.91-1.84-.91-2.99s.3-2.15.91-2.99c.61-.84,1.33-1.26,2.16-1.26Z"/>
            <path class="cls-1" d="M567.8,35.34c1.02,0,2.02.18,2.98.53.96.35,1.83.89,2.6,1.59.74.66,1.3,1.43,1.68,2.29.38.86.58,1.8.58,2.82,0,1.19-.24,2.11-.72,2.75-.48.64-1.09.96-1.83.96s-1.32-.29-1.85-.86c-.53-.57-.79-1.39-.79-2.46s.2-1.84.6-2.46c.4-.62.87-1.02,1.42-1.19-.32-.8-.89-1.46-1.71-1.99s-1.69-.8-2.62-.8c-.8,0-1.6.27-2.4.8-.8.53-1.54,1.41-2.21,2.62-.67,1.22-1.22,2.88-1.63,4.98-.42,2.1-.62,4.72-.62,7.86,0,3.89.32,6.99.96,9.29.64,2.3,1.48,3.95,2.52,4.94,1.04,1,2.19,1.49,3.44,1.49.83,0,1.68-.22,2.55-.66.87-.44,1.68-1.16,2.45-2.16.77-1,1.43-2.33,1.97-4.02l.91.46c-.32,1.42-.85,2.84-1.59,4.28-.74,1.44-1.7,2.62-2.88,3.55-1.19.93-2.64,1.39-4.37,1.39-1.99,0-3.78-.71-5.38-2.12-1.6-1.42-2.88-3.44-3.82-6.07-.95-2.63-1.42-5.76-1.42-9.39s.47-6.82,1.42-9.59c.94-2.76,2.27-4.93,3.96-6.5,1.7-1.57,3.64-2.36,5.81-2.36Z"/>
            <path class="cls-1" d="M590.82,35.34c2.82,0,5.02,1.18,6.61,3.55,1.59,2.37,2.38,6.05,2.38,11.05h-16.96l-.05-1.26h12.4c.06-2.17-.06-4.17-.38-6.01-.32-1.84-.83-3.31-1.51-4.41-.69-1.11-1.58-1.66-2.67-1.66-1.47,0-2.78,1.02-3.92,3.05-1.14,2.04-1.82,5.27-2.04,9.69l.14.27c-.06.66-.11,1.39-.14,2.19-.03.8-.05,1.59-.05,2.39,0,3.01.35,5.6,1.06,7.76.7,2.17,1.63,3.82,2.76,4.94,1.14,1.13,2.31,1.69,3.53,1.69.96,0,1.87-.21,2.74-.63.87-.42,1.67-1.12,2.4-2.09.74-.97,1.38-2.28,1.92-3.92l.96.53c-.35,1.46-.93,2.88-1.73,4.25-.8,1.37-1.81,2.49-3.03,3.35-1.22.86-2.63,1.29-4.23,1.29-2.31,0-4.29-.73-5.93-2.19-1.65-1.46-2.92-3.48-3.8-6.07-.88-2.59-1.32-5.56-1.32-8.93,0-3.89.45-7.24,1.35-10.05.9-2.81,2.16-4.98,3.8-6.5s3.54-2.29,5.72-2.29Z"/>
          </g>
          <g>
            <path class="cls-1" d="M201.74,116.28c-.17.47-.33,1.02-.5,1.64-.17.62-.34,1.28-.54,1.99-.14.56-.32,1.36-.54,2.41-.22,1.05-.41,2.13-.58,3.25-1.4-.06-2.99-.1-4.75-.11-1.76-.01-3.33-.02-4.71-.02h-2.33c-.95,0-1.98,0-3.08.02-1.1.02-2.22.03-3.34.04-1.13.02-2.19.04-3.18.07l.21-.88c.94-.06,1.67-.18,2.19-.35.52-.18.93-.53,1.22-1.06.29-.53.57-1.33.85-2.39l5.49-21.95c.27-1.09.39-1.89.35-2.41-.04-.52-.28-.87-.7-1.06-.43-.19-1.11-.3-2.04-.33l.21-.88c.58.03,1.33.06,2.27.09.94.03,1.94.04,3.01.04.96,0,1.92-.01,2.87-.04.95-.03,1.74-.06,2.37-.09l-.21.88c-.94.03-1.67.14-2.19.33-.52.19-.94.55-1.24,1.06-.3.52-.59,1.32-.87,2.41l-5.49,21.95c-.28,1.06-.39,1.86-.35,2.39.04.53.28.88.72,1.04.44.16,1.13.24,2.06.24h3.01c1.73,0,3.12-.27,4.15-.8,1.03-.53,1.9-1.4,2.6-2.61.7-1.21,1.4-2.83,2.09-4.87h.95Z"/>
            <path class="cls-1" d="M220.24,110.26c-.99,2.95-1.94,5.44-2.85,7.48-.91,2.04-1.81,3.67-2.7,4.91-.89,1.24-1.8,2.14-2.72,2.7-.92.56-1.88.84-2.87.84-1.21,0-2.09-.3-2.64-.89-.55-.59-.83-1.39-.83-2.39s.19-2.14.58-3.41l4-12.92c.27-.88.37-1.56.29-2.04-.08-.47-.4-.71-.95-.71s-1.04.31-1.55.93c-.51.62-1.05,1.81-1.63,3.58l-.54,1.64h-.78l1.03-3.23c.41-1.24.9-2.18,1.47-2.83.56-.65,1.16-1.1,1.78-1.35.62-.25,1.2-.38,1.75-.38,1.21,0,2.02.3,2.42.91.4.6.55,1.38.45,2.32-.1.94-.31,1.93-.64,2.96l-3.92,12.65c-.77,2.48-.47,3.72.91,3.72.66,0,1.36-.32,2.11-.95.74-.63,1.5-1.55,2.27-2.74.77-1.19,1.53-2.62,2.29-4.29.76-1.67,1.49-3.52,2.19-5.57.7-2.05,1.34-4.25,1.92-6.61l-.83,5.66ZM220.11,121.81c-.19.8-.28,1.45-.27,1.97.01.52.3.77.85.77.61,0,1.16-.35,1.67-1.04.51-.69,1.03-1.85,1.55-3.47l.54-1.64h.78l-1.03,3.23c-.39,1.24-.86,2.18-1.42,2.83-.56.65-1.16,1.1-1.78,1.35-.62.25-1.22.38-1.8.38-.44,0-.85-.1-1.24-.31-.39-.21-.67-.5-.87-.88-.22-.5-.3-1.14-.23-1.9.07-.77.25-1.8.56-3.1l4.05-17.17c.69-.03,1.36-.09,2-.18.65-.09,1.23-.24,1.75-.44l-5.12,19.6Z"/>
            <path class="cls-1" d="M230.6,123.49c1.29-1.27,2.44-2.76,3.43-4.47.99-1.71,1.75-3.29,2.27-4.73l.7.18c-.28.8-.63,1.68-1.05,2.65-.43.97-.97,1.99-1.63,3.05-.66,1.06-1.47,2.15-2.44,3.27-.83.91-1.57,1.6-2.23,2.06-.66.46-1.31.69-1.94.69s-1.07-.15-1.38-.44c-.32-.29-.47-.69-.47-1.19,0-.56.21-1.05.62-1.48.41-.43.92-.64,1.53-.64s1.16.12,1.57.35c.41.24.76.47,1.03.71ZM240.55,122.12c.11.77.28,1.3.52,1.59.23.3.53.44.89.44.41,0,.84-.26,1.28-.77.44-.52.94-1.61,1.49-3.3l.54-1.64h.78l-1.03,3.23c-.39,1.18-.83,2.09-1.34,2.74-.51.65-1.05,1.11-1.61,1.37-.56.27-1.15.4-1.75.4-.85,0-1.6-.3-2.23-.89-.63-.59-1.03-1.65-1.2-3.19l-1.65-15.84c-.11-.77-.28-1.3-.52-1.59-.23-.29-.53-.44-.89-.44-.28,0-.56.1-.85.31-.29.21-.59.6-.89,1.19-.3.59-.65,1.45-1.03,2.57l-.54,1.64h-.78l1.03-3.23c.41-1.18.87-2.09,1.36-2.74.5-.65,1.03-1.11,1.61-1.37.58-.27,1.16-.4,1.73-.4.96,0,1.73.29,2.31.86.58.58.95,1.64,1.11,3.21l1.65,15.84ZM244.02,104.9c-.85.83-1.6,1.78-2.23,2.88-.63,1.09-1.17,2.19-1.61,3.3-.44,1.11-.81,2.12-1.11,3.03l-.83-.04c.19-.59.41-1.25.66-1.97.25-.72.55-1.48.91-2.28.36-.8.79-1.61,1.3-2.46.51-.84,1.09-1.66,1.75-2.46.8-.97,1.51-1.67,2.15-2.08.63-.41,1.29-.62,1.98-.62.52,0,.96.15,1.3.44.34.3.52.69.52,1.19,0,.56-.2,1.05-.6,1.48-.4.43-.93.64-1.59.64-.61,0-1.13-.13-1.57-.38-.44-.25-.78-.48-1.03-.69Z"/>
            <path class="cls-1" d="M265.36,110.26c-.99,2.95-1.94,5.44-2.85,7.48-.91,2.04-1.81,3.67-2.7,4.91-.89,1.24-1.8,2.14-2.72,2.7-.92.56-1.88.84-2.87.84-1.21,0-2.09-.3-2.64-.89-.55-.59-.83-1.39-.83-2.39s.19-2.14.58-3.41l4-12.92c.27-.88.37-1.56.29-2.04-.08-.47-.4-.71-.95-.71s-1.04.31-1.55.93c-.51.62-1.05,1.81-1.63,3.58l-.54,1.64h-.78l1.03-3.23c.41-1.24.9-2.18,1.47-2.83.56-.65,1.16-1.1,1.78-1.35.62-.25,1.2-.38,1.75-.38,1.21,0,2.02.3,2.42.91.4.6.55,1.38.45,2.32-.1.94-.31,1.93-.64,2.96l-3.92,12.65c-.77,2.48-.47,3.72.91,3.72.66,0,1.36-.32,2.11-.95.74-.63,1.5-1.55,2.27-2.74.77-1.19,1.53-2.62,2.29-4.29.76-1.67,1.49-3.52,2.19-5.57.7-2.05,1.34-4.25,1.92-6.61l-.83,5.66ZM265.24,121.81c-.19.8-.28,1.45-.27,1.97.01.52.3.77.85.77.61,0,1.16-.35,1.67-1.04.51-.69,1.03-1.85,1.55-3.47l.54-1.64h.78l-1.03,3.23c-.39,1.24-.86,2.18-1.42,2.83-.56.65-1.16,1.1-1.78,1.35-.62.25-1.22.38-1.8.38-.44,0-.85-.1-1.24-.31-.39-.21-.67-.5-.87-.88-.22-.5-.3-1.14-.23-1.9.07-.77.25-1.8.56-3.1l4.05-17.17c.69-.03,1.36-.09,2-.18.65-.09,1.23-.24,1.75-.44l-5.12,19.6Z"/>
            <path class="cls-1" d="M277.38,125.57h-3.59l4.95-18.98c.27-1,.36-1.71.27-2.12-.1-.41-.38-.62-.85-.62-.61,0-1.16.34-1.65,1.02-.5.68-1.02,1.84-1.57,3.5l-.54,1.64h-.78l1.03-3.23c.41-1.24.9-2.18,1.47-2.83.56-.65,1.16-1.1,1.78-1.35.62-.25,1.2-.38,1.75-.38.83,0,1.41.19,1.75.58.34.38.54.88.58,1.5.04.62,0,1.29-.12,2.01-.12.72-.27,1.42-.43,2.1l-4.05,17.17ZM287.99,103.31c-.63,0-1.29.32-1.96.95-.67.63-1.36,1.55-2.06,2.74-.7,1.19-1.4,2.63-2.11,4.29-.7,1.67-1.39,3.52-2.06,5.55-.67,2.04-1.33,4.23-1.96,6.59l1.03-5.66c.91-2.89,1.75-5.32,2.54-7.3.78-1.98,1.56-3.58,2.33-4.8.77-1.22,1.56-2.11,2.37-2.65.81-.55,1.67-.82,2.58-.82.77,0,1.37.24,1.8.71.43.47.64,1.08.64,1.81,0,.59-.14,1.13-.41,1.61-.28.49-.63.87-1.05,1.15-.43.28-.9.42-1.42.42-.47,0-.86-.14-1.18-.42-.32-.28-.47-.67-.47-1.17,0-.47.08-.89.25-1.26.17-.37.39-.69.66-.95.27-.27.59-.47.95-.62-.06-.06-.12-.1-.19-.13-.07-.03-.16-.04-.27-.04Z"/>
            <path class="cls-1" d="M292.61,131.81c1.18-.68,2.44-1.6,3.78-2.77,1.33-1.17,2.72-2.74,4.15-4.71,1.62-2.21,3.1-4.7,4.44-7.46,1.33-2.76,2.26-5.54,2.79-8.34-.44-.27-.92-.6-1.42-1-.51-.4-.93-.87-1.26-1.42-.33-.55-.48-1.16-.45-1.84.05-.68.27-1.19.66-1.55.39-.35.87-.53,1.45-.53.74,0,1.29.3,1.63.91.34.6.52,1.5.52,2.68,0,1.5-.23,3.12-.7,4.84-.47,1.73-1.09,3.47-1.88,5.24-.78,1.77-1.66,3.47-2.62,5.11-.96,1.64-1.94,3.12-2.93,4.45-.44.59-1.05,1.33-1.82,2.21-.77.89-1.69,1.79-2.75,2.72-1.06.93-2.25,1.73-3.57,2.41-.83.41-1.53.7-2.13.86-.59.16-1.08.24-1.47.24-.55,0-1.03-.15-1.45-.46-.41-.31-.62-.76-.62-1.35,0-.65.23-1.14.68-1.48.45-.34.97-.51,1.55-.51.63,0,1.23.18,1.8.53.56.35,1.11.75,1.63,1.19ZM301.65,123.8l-2.77,3.23-3.14-20.35c-.14-.91-.3-1.55-.5-1.9-.19-.35-.47-.53-.83-.53-.3,0-.65.26-1.03.77-.39.52-.85,1.61-1.4,3.3l-.54,1.64h-.78l1.03-3.23c.58-1.8,1.29-3,2.15-3.61.85-.6,1.72-.91,2.6-.91s1.51.29,1.98.86c.47.58.8,1.64.99,3.21l2.23,17.52Z"/>
            <path class="cls-1" d="M365.07,94.82c-1.02.71-2.09,1.19-3.2,1.44-1.11.25-2.44.38-3.98.38-1.38,0-2.72-.09-4.03-.27-1.31-.18-2.6-.38-3.88-.62-1.28-.24-2.53-.44-3.76-.62-1.23-.18-2.44-.27-3.65-.27-.85,0-1.73.04-2.62.13-.89.09-1.56.3-2,.62.22.3.4.69.54,1.17.14.49.21.95.21,1.39,0,.59-.17,1.17-.5,1.73-.33.56-.85.84-1.57.84-.61,0-1.06-.21-1.36-.62-.3-.41-.45-.94-.45-1.59,0-.59.15-1.2.45-1.84.3-.63.88-1.17,1.73-1.61.63-.32,1.31-.56,2.04-.71.73-.15,1.42-.24,2.06-.27.65-.03,1.12-.04,1.42-.04,1.93,0,3.72.14,5.39.42,1.67.28,3.32.56,4.98.84,1.65.28,3.41.42,5.29.42,1.46,0,2.68-.12,3.65-.35.98-.24,1.97-.68,2.99-1.33l.25.75ZM347.98,94.99c.5.06.93.12,1.3.18.37.06.74.12,1.11.18.37.06.8.12,1.3.18l-6.19,24.91c-.28,1.12-.39,1.98-.33,2.59.05.6.35,1.03.89,1.26.54.24,1.38.37,2.54.4l-.17.88c-.72-.06-1.62-.1-2.72-.11-1.1-.01-2.24-.02-3.43-.02s-2.32,0-3.41.02c-1.09.02-1.96.05-2.62.11l.17-.88c1.16-.06,2.06-.21,2.7-.46.65-.25,1.16-.68,1.53-1.28.37-.6.71-1.44,1.01-2.5l6.32-25.44ZM364.7,91.01c.69-.03,1.36-.09,2-.18.65-.09,1.23-.24,1.75-.44l-9.21,35.17h-3.59l9.04-34.55ZM360.41,119.02c1.05-3.1,2.04-5.72,2.99-7.88.95-2.15,1.9-3.89,2.85-5.2.95-1.31,1.91-2.26,2.89-2.85.98-.59,2-.88,3.08-.88,1.24,0,2.11.31,2.6.93.5.62.73,1.44.7,2.46-.03,1.02-.22,2.12-.58,3.3l-4,12.92c-.11.38-.21.79-.29,1.22-.08.43-.06.79.06,1.08.12.3.42.44.89.44.52,0,1.04-.31,1.55-.93.51-.62,1.05-1.81,1.63-3.58l.54-1.64h.78l-1.03,3.23c-.39,1.24-.87,2.18-1.45,2.83-.58.65-1.17,1.1-1.78,1.35-.61.25-1.2.38-1.78.38-1.1,0-1.87-.27-2.31-.8-.44-.53-.63-1.27-.56-2.21.07-.94.28-2.01.64-3.19l3.92-12.65c.17-.53.3-1.08.39-1.66.1-.58.06-1.06-.1-1.46-.17-.4-.56-.6-1.2-.6-.88,0-1.82.52-2.81,1.55-.99,1.03-2,2.49-3.01,4.36-1.02,1.87-2,4.09-2.95,6.66-.95,2.57-1.82,5.4-2.62,8.49l.95-5.66Z"/>
            <path class="cls-1" d="M383.61,124.77c.66,0,1.42-.45,2.27-1.35.85-.9,1.72-2.12,2.6-3.65.88-1.53,1.69-3.27,2.44-5.22.74-1.95,1.33-3.97,1.78-6.06l-.7,4.78c-1.05,3.13-2.09,5.64-3.14,7.54-1.05,1.9-2.11,3.27-3.18,4.11-1.07.84-2.16,1.26-3.26,1.26-1.29,0-2.26-.5-2.91-1.5-.65-1-.97-2.29-.97-3.85,0-1.42.22-2.96.66-4.62.44-1.67,1.05-3.33,1.84-4.98.78-1.65,1.69-3.16,2.7-4.51,1.02-1.36,2.13-2.45,3.32-3.27,1.2-.83,2.42-1.24,3.65-1.24.96,0,1.7.51,2.21,1.53.51,1.02.61,2.44.31,4.27l-.45.27c.19-1.56.1-2.82-.29-3.78-.39-.96-1.02-1.44-1.9-1.44-.72,0-1.47.38-2.25,1.13-.78.75-1.54,1.77-2.27,3.05-.73,1.28-1.39,2.72-1.98,4.31-.59,1.59-1.06,3.24-1.4,4.93-.34,1.7-.52,3.33-.52,4.89,0,1.27.13,2.15.39,2.65.26.5.61.75,1.05.75ZM394.01,102.83c.66-.03,1.32-.09,1.98-.18.66-.09,1.27-.24,1.82-.44l-5.16,19.56c-.06.27-.13.61-.23,1.04-.1.43-.1.82,0,1.17.1.35.38.53.85.53.55,0,1.09-.32,1.61-.97.52-.65,1.05-1.83,1.57-3.54l.5-1.64h.78l-1.03,3.23c-.39,1.18-.85,2.1-1.38,2.77-.54.66-1.09,1.14-1.67,1.42-.58.28-1.14.42-1.69.42-1.07,0-1.83-.38-2.27-1.15-.36-.68-.45-1.47-.29-2.37.17-.9.36-1.81.58-2.72l4.05-17.12Z"/>
            <path class="cls-1" d="M404.75,121.81c-.25.97-.19,1.67.19,2.1.37.43.86.64,1.47.64s1.22-.28,1.84-.84c.62-.56,1.23-1.75,1.84-3.58l.58-1.73h.78l-.87,2.79c-.61,1.92-1.38,3.23-2.33,3.94-.95.71-2.06,1.06-3.32,1.06-1.13,0-1.99-.26-2.58-.77-.59-.52-.94-1.25-1.05-2.19-.11-.94,0-2.02.33-3.23l6.4-23.89c.66-.03,1.31-.09,1.96-.18.65-.09,1.23-.24,1.75-.44l-6.98,26.33ZM415.24,102.83l-.12.88h-12.84l.21-.88h12.76Z"/>
            <path class="cls-1" d="M456.61,116.28c-.17.47-.33,1.02-.5,1.64-.16.62-.34,1.28-.54,1.99-.14.56-.32,1.36-.54,2.41-.22,1.05-.41,2.13-.58,3.25-1.4-.06-2.99-.1-4.75-.11-1.76-.01-3.33-.02-4.71-.02h-2.33c-.95,0-1.98,0-3.08.02-1.1.02-2.22.03-3.34.04-1.13.02-2.19.04-3.18.07l.21-.88c.94-.06,1.67-.18,2.19-.35.52-.18.93-.53,1.22-1.06.29-.53.57-1.33.85-2.39l5.49-21.95c.27-1.09.39-1.89.35-2.41-.04-.52-.28-.87-.7-1.06-.43-.19-1.11-.3-2.04-.33l.21-.88c.58.03,1.33.06,2.27.09.94.03,1.94.04,3.01.04.96,0,1.92-.01,2.87-.04.95-.03,1.74-.06,2.37-.09l-.21.88c-.94.03-1.67.14-2.19.33-.52.19-.94.55-1.24,1.06-.3.52-.59,1.32-.87,2.41l-5.49,21.95c-.28,1.06-.39,1.86-.35,2.39.04.53.28.88.72,1.04.44.16,1.13.24,2.06.24h3.01c1.73,0,3.12-.27,4.15-.8s1.9-1.4,2.6-2.61c.7-1.21,1.4-2.83,2.08-4.87h.95Z"/>
            <path class="cls-1" d="M465.23,106.59c.58-1.83.39-2.74-.58-2.74-.63,0-1.2.37-1.69,1.11-.5.74-1.02,1.87-1.57,3.41l-.58,1.64h-.78l1.07-3.23c.41-1.24.91-2.18,1.49-2.83.58-.65,1.19-1.1,1.84-1.35.65-.25,1.25-.38,1.8-.38.88,0,1.53.19,1.94.58.41.38.66.88.74,1.5s.05,1.29-.08,2.01c-.14.72-.32,1.42-.54,2.1l-4.42,13.41c-.28.86-.37,1.53-.27,2.01.1.49.41.73.93.73.55,0,1.07-.32,1.57-.97.5-.65,1.05-1.83,1.65-3.54l.58-1.64h.78l-1.07,3.23c-.39,1.15-.85,2.06-1.4,2.72-.55.66-1.14,1.14-1.78,1.42-.63.28-1.27.42-1.9.42-1.18,0-1.98-.3-2.39-.89-.41-.59-.56-1.36-.45-2.3.11-.94.34-1.95.7-3.01l4.42-13.41ZM466.51,94.77c.14-.77.5-1.43,1.09-1.99.59-.56,1.23-.84,1.92-.84s1.27.28,1.67.84c.4.56.53,1.22.39,1.99-.14.77-.5,1.43-1.09,1.99-.59.56-1.25.84-1.96.84s-1.23-.28-1.63-.84c-.4-.56-.53-1.22-.39-1.99Z"/>
            <path class="cls-1" d="M473.62,124.9c.22.12.46.21.72.29.26.07.65.11,1.18.11,1.21,0,2.21-.39,2.99-1.17.78-.78,1.18-1.91,1.18-3.38,0-.91-.16-1.82-.47-2.72-.32-.9-.87-1.94-1.67-3.12-.63-.94-1.24-1.91-1.82-2.9-.58-.99-.87-2.16-.87-3.52,0-1.27.29-2.37.87-3.3.58-.93,1.36-1.66,2.33-2.19.98-.53,2.04-.8,3.2-.8.8,0,1.58.1,2.35.31.77.21,1.41.58,1.92,1.13.51.55.76,1.35.76,2.41,0,.27-.06.58-.19.95-.12.37-.32.69-.6.95-.28.27-.65.4-1.11.4-.44,0-.83-.17-1.16-.51-.33-.34-.5-.79-.5-1.35,0-.53.1-1.04.31-1.53.21-.49.49-.97.85-1.44-.52-.35-1.21-.53-2.06-.53-1.02,0-1.87.37-2.56,1.11-.69.74-1.03,1.77-1.03,3.1,0,.68.1,1.28.29,1.79.19.52.47,1.05.85,1.61.37.56.82,1.27,1.34,2.12.69,1.12,1.27,2.2,1.73,3.23.47,1.03.7,2.12.7,3.27,0,1.36-.32,2.56-.97,3.61-.65,1.05-1.51,1.87-2.58,2.46-1.07.59-2.26.89-3.55.89-.94,0-1.83-.15-2.68-.44-.85-.29-1.55-.76-2.09-1.39-.54-.63-.8-1.48-.8-2.54,0-.41.12-.85.35-1.31.23-.46.65-.69,1.26-.69.66,0,1.13.29,1.4.86.27.58.41,1.22.41,1.92,0,.47-.03.89-.1,1.26-.07.37-.13.72-.19,1.04Z"/>
            <path class="cls-1" d="M491.91,121.81c-.25.97-.19,1.67.19,2.1.37.43.86.64,1.47.64s1.22-.28,1.84-.84c.62-.56,1.23-1.75,1.84-3.58l.58-1.73h.78l-.87,2.79c-.61,1.92-1.38,3.23-2.33,3.94-.95.71-2.06,1.06-3.32,1.06-1.13,0-1.99-.26-2.58-.77-.59-.52-.94-1.25-1.05-2.19-.11-.94,0-2.02.33-3.23l6.4-23.89c.66-.03,1.31-.09,1.96-.18.65-.09,1.23-.24,1.75-.44l-6.98,26.33ZM502.39,102.83l-.12.88h-12.84l.21-.88h12.76Z"/>
            <path class="cls-1" d="M504.25,115.52c1.54-.56,2.94-1.11,4.19-1.66,1.25-.55,2.25-1.13,2.99-1.75.99-.86,1.78-1.89,2.35-3.1.58-1.21.87-2.54.87-3.98,0-.86-.06-1.4-.17-1.64-.11-.24-.28-.35-.5-.35-.69,0-1.43.32-2.23.97-.8.65-1.58,1.54-2.35,2.68-.77,1.14-1.48,2.43-2.13,3.87-.65,1.45-1.16,2.99-1.55,4.62-.39,1.64-.58,3.27-.58,4.89,0,1.5.26,2.59.78,3.25.52.66,1.21,1,2.06,1,.99,0,2.04-.32,3.14-.97,1.1-.65,2.17-1.8,3.22-3.45l.66.35c-.52.97-1.21,1.92-2.06,2.83-.85.91-1.81,1.66-2.87,2.23-1.06.58-2.18.86-3.37.86-1.1,0-2.06-.24-2.89-.71-.83-.47-1.46-1.17-1.9-2.1-.44-.93-.66-2.07-.66-3.43,0-1.27.22-2.69.66-4.27.44-1.58,1.07-3.16,1.88-4.73.81-1.58,1.78-3.03,2.91-4.36,1.13-1.33,2.38-2.39,3.76-3.19,1.38-.8,2.85-1.19,4.42-1.19.85,0,1.58.24,2.17.73.59.49.89,1.22.89,2.19,0,1.18-.32,2.28-.97,3.3-.65,1.02-1.5,1.95-2.56,2.79-1.06.84-2.21,1.59-3.45,2.23-1.24.65-2.45,1.21-3.63,1.68-1.18.47-2.23.86-3.14,1.15l.04-.75Z"/>
            <path class="cls-1" d="M523.53,125.57h-3.59l4.95-18.98c.11-.35.2-.74.27-1.17.07-.43.05-.8-.06-1.11-.11-.31-.39-.46-.83-.46-.61,0-1.14.32-1.61.95-.47.63-.99,1.82-1.57,3.56l-.54,1.64h-.78l1.03-3.23c.61-1.86,1.36-3.08,2.25-3.67.89-.59,1.78-.88,2.66-.88.83,0,1.42.19,1.8.58.37.38.58.88.62,1.48.04.6,0,1.27-.12,1.99-.12.72-.27,1.44-.43,2.15l-4.05,17.17ZM525.43,116.36c.96-2.65,1.9-4.88,2.81-6.68.91-1.8,1.8-3.25,2.68-4.36.88-1.11,1.78-1.9,2.7-2.39.92-.49,1.88-.73,2.87-.73,1.29,0,2.18.33,2.66,1,.48.66.69,1.5.64,2.52-.06,1.02-.25,2.07-.58,3.16l-4,12.92c-.25.8-.35,1.45-.31,1.97.04.52.36.77.97.77.52,0,1.04-.31,1.55-.93.51-.62,1.05-1.81,1.63-3.58l.54-1.64h.78l-1.03,3.23c-.39,1.24-.86,2.18-1.42,2.83-.56.65-1.16,1.1-1.78,1.35-.62.25-1.22.38-1.8.38-.66,0-1.2-.12-1.63-.35-.43-.24-.75-.55-.97-.93-.3-.53-.4-1.22-.29-2.08.11-.86.33-1.8.66-2.83l3.92-12.65c.14-.41.25-.91.35-1.48.1-.58.08-1.09-.06-1.55-.14-.46-.54-.69-1.2-.69s-1.36.31-2.11.93c-.74.62-1.51,1.5-2.31,2.63-.8,1.14-1.58,2.49-2.35,4.07-.77,1.58-1.51,3.32-2.21,5.22-.7,1.9-1.34,3.93-1.92,6.08l1.2-6.19Z"/>
            <path class="cls-1" d="M544.88,124.9c.22.12.46.21.72.29.26.07.65.11,1.18.11,1.21,0,2.21-.39,2.99-1.17.78-.78,1.18-1.91,1.18-3.38,0-.91-.16-1.82-.47-2.72-.32-.9-.87-1.94-1.67-3.12-.63-.94-1.24-1.91-1.82-2.9-.58-.99-.87-2.16-.87-3.52,0-1.27.29-2.37.87-3.3.58-.93,1.36-1.66,2.33-2.19.98-.53,2.04-.8,3.2-.8.8,0,1.58.1,2.35.31.77.21,1.41.58,1.92,1.13.51.55.76,1.35.76,2.41,0,.27-.06.58-.19.95-.12.37-.32.69-.6.95-.28.27-.65.4-1.11.4-.44,0-.83-.17-1.16-.51-.33-.34-.5-.79-.5-1.35,0-.53.1-1.04.31-1.53.21-.49.49-.97.85-1.44-.52-.35-1.21-.53-2.06-.53-1.02,0-1.87.37-2.56,1.11-.69.74-1.03,1.77-1.03,3.1,0,.68.1,1.28.29,1.79.19.52.47,1.05.85,1.61.37.56.82,1.27,1.34,2.12.69,1.12,1.27,2.2,1.73,3.23.47,1.03.7,2.12.7,3.27,0,1.36-.32,2.56-.97,3.61-.65,1.05-1.51,1.87-2.58,2.46-1.07.59-2.26.89-3.55.89-.94,0-1.83-.15-2.68-.44-.85-.29-1.55-.76-2.09-1.39-.54-.63-.8-1.48-.8-2.54,0-.41.12-.85.35-1.31.23-.46.65-.69,1.26-.69.66,0,1.13.29,1.4.86.27.58.41,1.22.41,1.92,0,.47-.03.89-.1,1.26-.07.37-.13.72-.19,1.04Z"/>
          </g>
        </g>
        <path class="cls-1" d="M127.98,99.56c-1.96-17.01-10.71-29.01-22.72-32.28-1.62-.44-3.25-.78-4.88-1.17.54-.58,1.09-.82,1.64-1.06,6.04-2.62,11.21-7.05,14.71-14.69,6.01-13.13,3.83-34.68-8.68-44.12C102.59,2.13,96.7.28,90.6.16,78.79-.06,66.98.03,55.18,0c-.28,0-.56.1-.87.17v3.48c.15.16.18.22.21.22.21.05.41.12.62.14,4.16.51,6.98,3.63,8.17,9.18.66,3.09.95,6.44,1,9.69.14,8.8.06,17.6.06,26.4,0,23.59-.04,47.17.03,70.76.02,6.77-1.83,12.04-5.64,15.99-3.95,4.1-8.41,5.63-13.26,5.29-7.95-.56-13.95-5.57-17.8-15.49-2.77-7.14-3.8-14.93-3.94-22.96-.15-8.5-.11-17-.13-25.5-.04-17.54-.08-35.08-.06-52.62,0-4.49.26-8.97,1.44-13.22,1.13-4.1,3.17-6.82,6.31-7.36,1.87-.32,1.76-.39,1.74-3.02,0-.34-.07-.68-.11-1H0v3.72c.34.06.59.11.84.14,4.08.53,7.01,3.45,8.15,8.99.76,3.68,1.17,7.62,1.19,11.45.09,22.99.06,45.98,0,68.96-.02,9.5.32,18.89,2.69,27.91,3.12,11.86,8.49,20.83,17,25.3,11.48,6.03,22.51,3.63,33.12-4.38.42-.31.8-.71,1.42-1.26-.78,3.49-2.7,5.11-4.31,7.44.48.06.76.12,1.03.12,11.09.07,22.18.22,33.27.16,5.09-.03,10.12-1.06,14.93-3.57,14.37-7.49,21.07-24.63,18.65-45.57ZM77.52,6.04c.04-.05.11-.19.17-.19,5.02-.06,10.05-.41,15.01,1.32,8.23,2.87,12.62,11.17,13.84,22.34.56,5.06.44,10.15-.36,15.15-1.54,9.54-5.76,15.41-12.38,17.97-5.31,2.05-10.73,1.33-16.27,1.49V6.04ZM113.05,121.09c-2.47,11.19-7.89,17.91-16.07,20.19-4.35,1.21-8.74,1.11-13.14,1.13-2.06.01-4.12,0-6.27,0v-72.72c6.61.18,13.15-.58,19.52,1.84,8.13,3.08,13.57,10.26,16.13,21.69,2.09,9.32,1.86,18.67-.17,27.87Z"/>
      </g>
    </g>
  </g>
</svg>