<?xml version="1.0" encoding="UTF-8"?>
<svg xmlns="http://www.w3.org/2000/svg" version="1.1" viewBox="0 0 600 150">
  <defs>
    <style>
      .cls-1 {
        fill=currentColor;
      }
    </style>
  </defs>
  <!-- Generator: Adobe Illustrator 28.7.8, SVG Export Plug-In . SVG Version: 1.2.0 Build 200)  -->
  <g>
    <g id="Layer_2">
      <g>
        <g>
          <g>
            <path class="cls-1" d="M165.79,38.56v.94c-1.09.03-1.91.19-2.47.47-.56.28-.94.74-1.13,1.36-.19.63-.29,1.52-.29,2.67v14.12c0,2.19-.14,4.1-.43,5.72-.29,1.63-.8,3.03-1.54,4.22-.8,1.31-1.97,2.37-3.51,3.17-1.54.8-3.3,1.2-5.29,1.2-1.54,0-3-.18-4.4-.54-1.39-.36-2.62-1.02-3.68-1.99-.93-.88-1.66-1.8-2.19-2.77-.53-.97-.89-2.16-1.08-3.57-.19-1.41-.29-3.17-.29-5.3v-14.73c0-1.16-.1-2.01-.29-2.56-.19-.55-.57-.92-1.13-1.13-.56-.2-1.39-.32-2.47-.35v-.94c.67.03,1.55.06,2.64.09,1.09.03,2.26.05,3.51.05,1.12,0,2.23-.02,3.34-.05,1.11-.03,2.03-.06,2.76-.09v.94c-1.09.03-1.91.15-2.47.35-.56.2-.94.58-1.13,1.13-.19.55-.29,1.4-.29,2.56v15.53c0,1.6.08,3.1.24,4.53.16,1.42.49,2.67.99,3.75.5,1.08,1.26,1.92,2.28,2.53,1.02.61,2.39.91,4.08.91,2.43,0,4.32-.52,5.65-1.57,1.33-1.05,2.26-2.49,2.79-4.34.53-1.85.79-3.93.79-6.24v-14.64c0-1.16-.14-2.05-.41-2.67-.27-.63-.73-1.08-1.37-1.36-.64-.28-1.51-.44-2.6-.47v-.94c.58.03,1.34.06,2.28.09.94.03,1.82.05,2.62.05s1.66-.02,2.47-.05c.82-.03,1.48-.06,1.99-.09Z"/>
            <path class="cls-1" d="M183.9,46.96c1.22,0,2.23.16,3.05.47.82.31,1.5.75,2.04,1.31.61.63,1.04,1.41,1.3,2.35.26.94.38,2.21.38,3.8v12.53c0,1.31.28,2.21.84,2.67.56.47,1.5.7,2.81.7v.99c-.55-.03-1.38-.07-2.5-.12-1.12-.05-2.21-.07-3.27-.07s-2.09.02-3.1.07-1.77.09-2.28.12v-.99c1.15,0,1.97-.23,2.45-.7.48-.47.72-1.36.72-2.67v-13.56c0-.97-.08-1.86-.24-2.67-.16-.81-.52-1.47-1.08-1.97-.56-.5-1.42-.75-2.57-.75-1.35,0-2.52.38-3.53,1.13-1.01.75-1.79,1.78-2.35,3.07-.56,1.3-.84,2.74-.84,4.34v10.42c0,1.31.24,2.21.72,2.67.48.47,1.3.7,2.45.7v.99c-.51-.03-1.27-.07-2.28-.12-1.01-.05-2.04-.07-3.1-.07s-2.15.02-3.27.07c-1.12.05-1.95.09-2.5.12v-.99c1.31,0,2.25-.23,2.81-.7.56-.47.84-1.36.84-2.67v-14.69c0-1.41-.26-2.45-.77-3.12-.51-.67-1.47-1.01-2.88-1.01v-.99c1.02.09,2.02.14,2.98.14s1.82-.05,2.67-.16c.85-.11,1.63-.27,2.33-.49v5.54c.83-2.13,1.99-3.6,3.48-4.43,1.49-.83,3.05-1.24,4.69-1.24Z"/>
            <path class="cls-1" d="M204.42,47.1v20.32c0,1.31.28,2.21.84,2.67.56.47,1.5.7,2.81.7v.99c-.55-.03-1.37-.07-2.47-.12-1.11-.05-2.22-.07-3.34-.07s-2.19.02-3.32.07c-1.12.05-1.95.09-2.5.12v-.99c1.31,0,2.25-.23,2.81-.7.56-.47.84-1.36.84-2.67v-14.69c0-1.41-.26-2.45-.77-3.12-.51-.67-1.47-1.01-2.88-1.01v-.99c1.02.09,2.02.14,2.98.14s1.82-.05,2.67-.16c.85-.11,1.63-.27,2.33-.49ZM201.92,35.89c.83,0,1.55.3,2.16.89.61.59.91,1.3.91,2.11s-.3,1.52-.91,2.11c-.61.59-1.33.89-2.16.89s-1.55-.3-2.16-.89c-.61-.59-.91-1.3-.91-2.11s.3-1.52.91-2.11c.61-.59,1.33-.89,2.16-.89Z"/>
            <path class="cls-1" d="M221.67,46.96c1.99,0,3.59.42,4.81,1.24,1.22.83,2.16,2.2,2.84,4.11l-.96-.52c-.61-1.28-1.46-2.23-2.55-2.84-1.09-.61-2.34-.91-3.75-.91-1.89,0-3.36.95-4.42,2.86-1.06,1.91-1.59,4.85-1.59,8.82,0,2.5.26,4.6.77,6.29.51,1.69,1.27,2.95,2.26,3.78.99.83,2.19,1.24,3.6,1.24s2.58-.64,3.7-1.92c1.12-1.28,1.78-3.17,1.97-5.68l.58.66c-.22,2.66-1.05,4.72-2.47,6.17-1.43,1.45-3.15,2.18-5.17,2.18-1.83,0-3.49-.46-5-1.38-1.51-.92-2.7-2.33-3.58-4.22-.88-1.89-1.32-4.26-1.32-7.11s.46-5.22,1.37-7.11c.91-1.89,2.15-3.31,3.7-4.25,1.55-.94,3.29-1.41,5.21-1.41ZM231.86,46.87l.82.33c-.13.41-.22.84-.26,1.31-.05.47-.07.94-.07,1.41v26.46c0,1.13.24,1.89.72,2.3.48.41,1.3.61,2.45.61v.99c-.51-.03-1.25-.07-2.21-.12-.96-.05-1.95-.07-2.98-.07-1.38,0-2.7.02-3.96.07-1.27.05-2.25.09-2.96.12v-.99c1.44,0,2.57-.23,3.39-.68.82-.45,1.23-1.35,1.23-2.7v-25.1c.45-.44.88-.88,1.3-1.31.42-.44.84-.88,1.27-1.31.43-.44.86-.88,1.27-1.31Z"/>
            <path class="cls-1" d="M259.4,47.1v19.61c0,1.41.26,2.45.79,3.12.53.67,1.48,1.01,2.86,1.01v.99c-.99-.09-1.99-.14-2.98-.14-.93,0-1.82.05-2.67.14-.85.09-1.63.27-2.33.52v-5.54c-.8,2.03-1.93,3.48-3.39,4.34-1.46.86-2.96,1.29-4.49,1.29-1.12,0-2.1-.16-2.93-.47-.83-.31-1.52-.75-2.07-1.31-.61-.63-1.03-1.44-1.25-2.44-.22-1-.34-2.24-.34-3.71v-11.78c0-1.41-.26-2.45-.77-3.12-.51-.67-1.47-1.01-2.88-1.01v-.99c1.02.09,2.02.14,2.98.14s1.82-.05,2.67-.16c.85-.11,1.63-.27,2.33-.49v18.44c0,.97.06,1.86.19,2.67.13.81.45,1.47.96,1.97.51.5,1.35.75,2.5.75,1.25,0,2.36-.38,3.34-1.13.98-.75,1.75-1.77,2.31-3.05.56-1.28.84-2.72.84-4.32v-9.71c0-1.41-.26-2.45-.77-3.12-.51-.67-1.47-1.01-2.88-1.01v-.99c1.02.09,2.02.14,2.98.14s1.82-.05,2.67-.16c.85-.11,1.63-.27,2.33-.49Z"/>
            <path class="cls-1" d="M277.18,46.96c2.82,0,5.02.84,6.61,2.51,1.59,1.67,2.38,4.28,2.38,7.81h-16.96l-.05-.89h12.4c.06-1.53-.06-2.95-.38-4.25-.32-1.3-.83-2.34-1.51-3.12-.69-.78-1.58-1.17-2.67-1.17-1.47,0-2.78.72-3.92,2.16-1.14,1.44-1.82,3.72-2.04,6.85l.14.19c-.06.47-.11.99-.14,1.55-.03.56-.05,1.13-.05,1.69,0,2.13.35,3.96,1.06,5.49.7,1.53,1.63,2.7,2.76,3.5,1.14.8,2.31,1.2,3.53,1.2.96,0,1.87-.15,2.74-.45.87-.3,1.67-.79,2.4-1.48.74-.69,1.38-1.61,1.92-2.77l.96.38c-.35,1.03-.93,2.03-1.73,3-.8.97-1.81,1.76-3.03,2.37-1.22.61-2.63.91-4.23.91-2.31,0-4.28-.52-5.93-1.55-1.65-1.03-2.92-2.46-3.8-4.29-.88-1.83-1.32-3.93-1.32-6.31,0-2.75.45-5.12,1.35-7.11.9-1.99,2.16-3.52,3.8-4.6,1.63-1.08,3.54-1.62,5.72-1.62Z"/>
            <path class="cls-1" d="M302.4,38.56c.67.03,1.55.06,2.64.09,1.09.03,2.16.05,3.22.05,1.51,0,2.95-.02,4.33-.05,1.38-.03,2.35-.05,2.93-.05,3.36,0,5.89.69,7.59,2.06,1.7,1.38,2.55,3.14,2.55,5.3,0,1.1-.23,2.17-.7,3.21-.46,1.05-1.23,2-2.31,2.86-1.07.86-2.51,1.56-4.3,2.09v.09c2.53.31,4.51.9,5.93,1.76,1.43.86,2.43,1.87,3,3.03.58,1.16.87,2.38.87,3.66,0,1.78-.46,3.35-1.37,4.72-.91,1.36-2.23,2.43-3.96,3.21-1.73.78-3.8,1.17-6.2,1.17-.71,0-1.76-.02-3.17-.07-1.41-.05-3.11-.07-5.09-.07-1.12,0-2.23,0-3.32.02-1.09.02-1.97.05-2.64.12v-.94c1.09-.06,1.91-.19,2.47-.38.56-.19.94-.56,1.13-1.13.19-.56.29-1.41.29-2.53v-23.27c0-1.16-.1-2.01-.29-2.56-.19-.55-.57-.92-1.13-1.13-.56-.2-1.39-.32-2.47-.35v-.94ZM314.32,39.5c-1.47,0-2.44.27-2.88.8-.45.53-.67,1.61-.67,3.24v23.27c0,1.1.1,1.92.29,2.49s.54.94,1.06,1.13c.51.19,1.27.28,2.26.28,3.14,0,5.42-.71,6.85-2.13,1.42-1.42,2.14-3.45,2.14-6.08,0-2.41-.67-4.27-1.99-5.58-1.33-1.31-3.52-1.97-6.56-1.97h-4.95v-.8h4.13c1.89,0,3.35-.35,4.37-1.06,1.02-.7,1.73-1.64,2.11-2.82.38-1.17.58-2.43.58-3.78,0-2.31-.52-4.06-1.56-5.23-1.04-1.17-2.76-1.76-5.17-1.76Z"/>
            <path class="cls-1" d="M353.53,47.1v19.61c0,1.41.26,2.45.79,3.12.53.67,1.48,1.01,2.86,1.01v.99c-.99-.09-1.99-.14-2.98-.14-.93,0-1.82.05-2.67.14-.85.09-1.63.27-2.33.52v-5.54c-.8,2.03-1.93,3.48-3.39,4.34-1.46.86-2.96,1.29-4.49,1.29-1.12,0-2.1-.16-2.93-.47-.83-.31-1.52-.75-2.07-1.31-.61-.63-1.03-1.44-1.25-2.44-.22-1-.34-2.24-.34-3.71v-11.78c0-1.41-.26-2.45-.77-3.12-.51-.67-1.47-1.01-2.88-1.01v-.99c1.02.09,2.02.14,2.98.14s1.82-.05,2.67-.16c.85-.11,1.63-.27,2.33-.49v18.44c0,.97.06,1.86.19,2.67.13.81.45,1.47.96,1.97.51.5,1.35.75,2.5.75,1.25,0,2.36-.38,3.34-1.13.98-.75,1.75-1.77,2.31-3.05.56-1.28.84-2.72.84-4.32v-9.71c0-1.41-.26-2.45-.77-3.12-.51-.67-1.47-1.01-2.88-1.01v-.99c1.02.09,2.02.14,2.98.14s1.82-.05,2.67-.16c.85-.11,1.63-.27,2.33-.49Z"/>
            <path class="cls-1" d="M367.37,39.83v7.84h7.11v.94h-7.11v18.16c0,1.47.27,2.5.82,3.1.54.59,1.3.89,2.26.89s1.79-.38,2.5-1.15c.7-.77,1.31-2.06,1.83-3.87l.96.23c-.32,1.81-.95,3.35-1.9,4.6-.95,1.25-2.4,1.88-4.35,1.88-1.09,0-1.99-.13-2.69-.4-.71-.27-1.33-.65-1.87-1.15-.71-.72-1.19-1.58-1.47-2.58-.27-1-.41-2.33-.41-3.99v-15.72h-4.61v-.94h4.61v-7.18c.8-.03,1.57-.09,2.31-.19.74-.09,1.41-.25,2.02-.47Z"/>
            <path class="cls-1" d="M384.29,35v32.42c0,1.31.28,2.21.84,2.67.56.47,1.5.7,2.81.7v.99c-.55-.03-1.37-.07-2.47-.12-1.11-.05-2.22-.07-3.34-.07s-2.19.02-3.32.07c-1.12.05-1.95.09-2.5.12v-.99c1.31,0,2.25-.23,2.81-.7.56-.47.84-1.36.84-2.67v-26.79c0-1.41-.26-2.45-.77-3.12-.51-.67-1.47-1.01-2.88-1.01v-.99c1.02.09,2.02.14,2.98.14s1.82-.05,2.67-.16c.85-.11,1.63-.27,2.33-.49Z"/>
            <path class="cls-1" d="M401.59,46.96c2.82,0,5.02.84,6.61,2.51,1.59,1.67,2.38,4.28,2.38,7.81h-16.96l-.05-.89h12.4c.06-1.53-.06-2.95-.38-4.25-.32-1.3-.83-2.34-1.51-3.12-.69-.78-1.58-1.17-2.67-1.17-1.47,0-2.78.72-3.92,2.16-1.14,1.44-1.82,3.72-2.04,6.85l.14.19c-.06.47-.11.99-.14,1.55-.03.56-.05,1.13-.05,1.69,0,2.13.35,3.96,1.06,5.49.7,1.53,1.63,2.7,2.76,3.5,1.14.8,2.31,1.2,3.53,1.2.96,0,1.87-.15,2.74-.45.87-.3,1.67-.79,2.4-1.48.74-.69,1.38-1.61,1.92-2.77l.96.38c-.35,1.03-.93,2.03-1.73,3-.8.97-1.81,1.76-3.03,2.37-1.22.61-2.63.91-4.23.91-2.31,0-4.29-.52-5.93-1.55-1.65-1.03-2.92-2.46-3.8-4.29-.88-1.83-1.32-3.93-1.32-6.31,0-2.75.45-5.12,1.35-7.11.9-1.99,2.16-3.52,3.8-4.6s3.54-1.62,5.72-1.62Z"/>
            <path class="cls-1" d="M429.17,46.96c.87,0,1.63.17,2.28.52.66.34,1.17.79,1.54,1.34.37.55.55,1.17.55,1.85,0,.78-.25,1.47-.74,2.06-.5.59-1.16.89-1.99.89-.67,0-1.27-.21-1.78-.63-.51-.42-.77-1.02-.77-1.81,0-.59.17-1.1.5-1.52.34-.42.71-.76,1.13-1.01-.22-.31-.56-.47-1.01-.47-.99,0-1.91.29-2.74.87-.83.58-1.54,1.32-2.11,2.23-.58.91-1.03,1.87-1.35,2.89-.32,1.02-.48,1.96-.48,2.84v9.95c0,1.53.46,2.56,1.37,3.07.91.52,2.15.77,3.72.77v.99c-.74-.03-1.78-.07-3.12-.12s-2.77-.07-4.28-.07c-1.09,0-2.17.02-3.24.07-1.07.05-1.88.09-2.43.12v-.99c1.31,0,2.25-.23,2.81-.7.56-.47.84-1.36.84-2.67v-14.69c0-1.41-.26-2.45-.77-3.12-.51-.67-1.47-1.01-2.88-1.01v-.99c1.02.09,2.02.14,2.98.14s1.82-.05,2.67-.16c.85-.11,1.63-.27,2.33-.49v5.86c.35-.91.86-1.82,1.51-2.74.66-.92,1.45-1.7,2.38-2.32.93-.63,1.95-.94,3.08-.94Z"/>
            <path class="cls-1" d="M457.47,38.05c1.6,0,2.82.18,3.65.54.83.36,1.57.76,2.21,1.2.38.22.7.38.94.49.24.11.47.16.7.16.32,0,.55-.17.7-.52.14-.34.26-.86.36-1.55h1.11c-.03.53-.07,1.17-.12,1.9-.05.74-.08,1.71-.1,2.91-.02,1.2-.02,2.79-.02,4.76h-1.11c-.1-1.5-.43-2.94-1.01-4.32-.58-1.38-1.42-2.5-2.52-3.38-1.11-.88-2.56-1.31-4.35-1.31-1.7,0-3.1.5-4.2,1.5-1.11,1-1.66,2.32-1.66,3.94,0,1.41.37,2.59,1.11,3.54.74.95,1.72,1.81,2.96,2.58,1.23.77,2.57,1.59,4.01,2.46,1.67,1,3.15,1.99,4.45,2.98,1.3.99,2.32,2.07,3.08,3.26.75,1.19,1.13,2.63,1.13,4.32,0,2-.46,3.66-1.39,4.97-.93,1.31-2.16,2.3-3.7,2.96-1.54.66-3.24.99-5.09.99-1.7,0-3.04-.19-4.04-.56-.99-.38-1.84-.77-2.55-1.17-.71-.44-1.25-.66-1.63-.66-.32,0-.55.17-.7.52-.14.34-.26.86-.36,1.55h-1.11c.06-.66.1-1.43.12-2.32.02-.89.03-2.06.05-3.5.02-1.44.02-3.25.02-5.44h1.11c.13,1.88.49,3.63,1.08,5.26.59,1.63,1.51,2.93,2.74,3.92,1.23.99,2.88,1.48,4.93,1.48,1.06,0,2.06-.21,3-.63.94-.42,1.72-1.09,2.33-2.02.61-.92.91-2.12.91-3.59,0-1.28-.31-2.4-.94-3.35-.62-.95-1.5-1.85-2.62-2.67-1.12-.83-2.44-1.68-3.94-2.56-1.51-.91-2.92-1.83-4.23-2.77-1.31-.94-2.36-2.02-3.15-3.26-.79-1.24-1.18-2.73-1.18-4.48,0-1.85.42-3.37,1.27-4.57.85-1.2,1.96-2.1,3.34-2.67,1.38-.58,2.85-.87,4.42-.87Z"/>
            <path class="cls-1" d="M484.19,46.96c2.82,0,5.02.84,6.61,2.51,1.59,1.67,2.38,4.28,2.38,7.81h-16.96l-.05-.89h12.4c.06-1.53-.06-2.95-.38-4.25-.32-1.3-.83-2.34-1.51-3.12-.69-.78-1.58-1.17-2.67-1.17-1.47,0-2.78.72-3.92,2.16-1.14,1.44-1.82,3.72-2.04,6.85l.14.19c-.06.47-.11.99-.14,1.55-.03.56-.05,1.13-.05,1.69,0,2.13.35,3.96,1.06,5.49.7,1.53,1.63,2.7,2.76,3.5,1.14.8,2.31,1.2,3.53,1.2.96,0,1.87-.15,2.74-.45.87-.3,1.67-.79,2.4-1.48.74-.69,1.38-1.61,1.92-2.77l.96.38c-.35,1.03-.93,2.03-1.73,3-.8.97-1.81,1.76-3.03,2.37-1.22.61-2.63.91-4.23.91-2.31,0-4.29-.52-5.93-1.55-1.65-1.03-2.92-2.46-3.8-4.29-.88-1.83-1.32-3.93-1.32-6.31,0-2.75.45-5.12,1.35-7.11.9-1.99,2.16-3.52,3.8-4.6s3.54-1.62,5.72-1.62Z"/>
            <path class="cls-1" d="M511.77,46.96c.87,0,1.63.17,2.28.52.66.34,1.17.79,1.54,1.34.37.55.55,1.17.55,1.85,0,.78-.25,1.47-.74,2.06-.5.59-1.16.89-1.99.89-.67,0-1.27-.21-1.78-.63-.51-.42-.77-1.02-.77-1.81,0-.59.17-1.1.5-1.52.34-.42.71-.76,1.13-1.01-.22-.31-.56-.47-1.01-.47-.99,0-1.91.29-2.74.87-.83.58-1.54,1.32-2.11,2.23-.58.91-1.03,1.87-1.35,2.89-.32,1.02-.48,1.96-.48,2.84v9.95c0,1.53.46,2.56,1.37,3.07.91.52,2.15.77,3.72.77v.99c-.74-.03-1.78-.07-3.12-.12s-2.77-.07-4.28-.07c-1.09,0-2.17.02-3.24.07-1.07.05-1.88.09-2.43.12v-.99c1.31,0,2.25-.23,2.81-.7.56-.47.84-1.36.84-2.67v-14.69c0-1.41-.26-2.45-.77-3.12-.51-.67-1.47-1.01-2.88-1.01v-.99c1.02.09,2.02.14,2.98.14s1.82-.05,2.67-.16c.85-.11,1.63-.27,2.33-.49v5.86c.35-.91.86-1.82,1.51-2.74.66-.92,1.45-1.7,2.38-2.32.93-.63,1.95-.94,3.08-.94Z"/>
            <path class="cls-1" d="M540.17,47.62v.94c-.61.06-1.17.33-1.68.8-.51.47-.99,1.3-1.44,2.49l-7.88,20.18h-.82l-8.84-20.79c-.51-1.22-1.02-1.96-1.51-2.23-.5-.27-.92-.4-1.27-.4v-.99c.64.03,1.31.07,1.99.12.69.05,1.43.07,2.23.07.99,0,2.04-.02,3.15-.05,1.11-.03,2.14-.08,3.1-.14v.99c-.8,0-1.51.06-2.14.16-.62.11-1.03.42-1.2.91-.18.5-.02,1.36.46,2.58l6.01,14.5-.29.23,5.48-14.03c.42-1.03.58-1.85.5-2.46-.08-.61-.4-1.07-.96-1.38-.56-.31-1.42-.5-2.57-.56v-.94c.58.03,1.07.05,1.49.07.42.02.82.03,1.23.05.4.02.84.02,1.32.02.74,0,1.4-.02,1.99-.05.59-.03,1.14-.06,1.66-.09Z"/>
            <path class="cls-1" d="M549.69,47.1v20.32c0,1.31.28,2.21.84,2.67.56.47,1.5.7,2.81.7v.99c-.55-.03-1.37-.07-2.47-.12-1.11-.05-2.22-.07-3.34-.07s-2.19.02-3.32.07c-1.12.05-1.95.09-2.5.12v-.99c1.31,0,2.25-.23,2.81-.7.56-.47.84-1.36.84-2.67v-14.69c0-1.41-.26-2.45-.77-3.12-.51-.67-1.47-1.01-2.88-1.01v-.99c1.02.09,2.02.14,2.98.14s1.82-.05,2.67-.16c.85-.11,1.63-.27,2.33-.49ZM547.19,35.89c.83,0,1.55.3,2.16.89.61.59.91,1.3.91,2.11s-.31,1.52-.91,2.11c-.61.59-1.33.89-2.16.89s-1.55-.3-2.16-.89c-.61-.59-.91-1.3-.91-2.11s.3-1.52.91-2.11c.61-.59,1.33-.89,2.16-.89Z"/>
            <path class="cls-1" d="M567.8,46.96c1.02,0,2.02.13,2.98.38.96.25,1.83.63,2.6,1.13.74.47,1.3,1.01,1.68,1.62.38.61.58,1.27.58,1.99,0,.84-.24,1.49-.72,1.95-.48.45-1.09.68-1.83.68s-1.32-.2-1.85-.61c-.53-.41-.79-.99-.79-1.74s.2-1.3.6-1.74c.4-.44.87-.72,1.42-.84-.32-.56-.89-1.03-1.71-1.41s-1.69-.56-2.62-.56c-.8,0-1.6.19-2.4.56-.8.38-1.54.99-2.21,1.85-.67.86-1.22,2.03-1.63,3.52-.42,1.49-.62,3.34-.62,5.56,0,2.75.32,4.94.96,6.57.64,1.63,1.48,2.79,2.52,3.5,1.04.7,2.19,1.06,3.44,1.06.83,0,1.68-.16,2.55-.47.87-.31,1.68-.82,2.45-1.52.77-.7,1.43-1.65,1.97-2.84l.91.33c-.32,1-.85,2.01-1.59,3.03-.74,1.02-1.7,1.85-2.88,2.51-1.19.66-2.64.99-4.37.99-1.99,0-3.78-.5-5.38-1.5-1.6-1-2.88-2.43-3.82-4.29-.95-1.86-1.42-4.07-1.42-6.64s.47-4.82,1.42-6.78c.94-1.95,2.27-3.49,3.96-4.6,1.7-1.11,3.64-1.67,5.81-1.67Z"/>
            <path class="cls-1" d="M590.82,46.96c2.82,0,5.02.84,6.61,2.51,1.59,1.67,2.38,4.28,2.38,7.81h-16.96l-.05-.89h12.4c.06-1.53-.06-2.95-.38-4.25-.32-1.3-.83-2.34-1.51-3.12-.69-.78-1.58-1.17-2.67-1.17-1.47,0-2.78.72-3.92,2.16-1.14,1.44-1.82,3.72-2.04,6.85l.14.19c-.06.47-.11.99-.14,1.55-.03.56-.05,1.13-.05,1.69,0,2.13.35,3.96,1.06,5.49.7,1.53,1.63,2.7,2.76,3.5,1.14.8,2.31,1.2,3.53,1.2.96,0,1.87-.15,2.74-.45.87-.3,1.67-.79,2.4-1.48.74-.69,1.38-1.61,1.92-2.77l.96.38c-.35,1.03-.93,2.03-1.73,3-.8.97-1.81,1.76-3.03,2.37-1.22.61-2.63.91-4.23.91-2.31,0-4.29-.52-5.93-1.55-1.65-1.03-2.92-2.46-3.8-4.29-.88-1.83-1.32-3.93-1.32-6.31,0-2.75.45-5.12,1.35-7.11.9-1.99,2.16-3.52,3.8-4.6s3.54-1.62,5.72-1.62Z"/>
          </g>
          <g>
            <path class="cls-1" d="M201.74,104.18c-.17.33-.33.72-.5,1.16-.17.44-.34.91-.54,1.41-.14.4-.32.96-.54,1.7-.22.74-.41,1.51-.58,2.3-1.4-.04-2.99-.07-4.75-.08-1.76-.01-3.33-.02-4.71-.02h-2.33c-.95,0-1.98,0-3.08.02-1.1.01-2.22.02-3.34.03-1.13.01-2.19.03-3.18.05l.21-.63c.94-.04,1.67-.13,2.19-.25.52-.13.93-.38,1.22-.75.29-.38.57-.94.85-1.69l5.49-15.51c.27-.77.39-1.34.35-1.7-.04-.36-.28-.61-.7-.75-.43-.14-1.11-.21-2.04-.23l.21-.63c.58.02,1.33.04,2.27.06.94.02,1.94.03,3.01.03.96,0,1.92-.01,2.87-.03.95-.02,1.74-.04,2.37-.06l-.21.63c-.94.02-1.67.1-2.19.23-.52.14-.94.39-1.24.75-.3.37-.59.93-.87,1.7l-5.49,15.51c-.28.75-.39,1.31-.35,1.69.04.38.28.62.72.74.44.11,1.13.17,2.06.17h3.01c1.73,0,3.12-.19,4.15-.56,1.03-.38,1.9-.99,2.6-1.85.7-.85,1.4-2,2.09-3.44h.95Z"/>
            <path class="cls-1" d="M220.24,99.93c-.99,2.09-1.94,3.85-2.85,5.29-.91,1.44-1.81,2.6-2.7,3.47-.89.88-1.8,1.51-2.72,1.91-.92.4-1.88.59-2.87.59-1.21,0-2.09-.21-2.64-.63-.55-.42-.83-.98-.83-1.69s.19-1.51.58-2.41l4-9.13c.27-.63.37-1.11.29-1.44-.08-.33-.4-.5-.95-.5s-1.04.22-1.55.66c-.51.44-1.05,1.28-1.63,2.53l-.54,1.16h-.78l1.03-2.28c.41-.88.9-1.54,1.47-2,.56-.46,1.16-.78,1.78-.95.62-.18,1.2-.27,1.75-.27,1.21,0,2.02.21,2.42.64.4.43.55.98.45,1.64-.1.67-.31,1.37-.64,2.1l-3.92,8.95c-.77,1.75-.47,2.63.91,2.63.66,0,1.36-.22,2.11-.67.74-.45,1.5-1.09,2.27-1.94.77-.84,1.53-1.86,2.29-3.03.76-1.18,1.49-2.49,2.19-3.94.7-1.45,1.34-3.01,1.92-4.68l-.83,4ZM220.11,108.09c-.19.56-.28,1.03-.27,1.39.01.37.3.55.85.55.61,0,1.16-.24,1.67-.74.51-.49,1.03-1.31,1.55-2.46l.54-1.16h.78l-1.03,2.28c-.39.88-.86,1.54-1.42,2-.56.46-1.16.78-1.78.95-.62.18-1.22.27-1.8.27-.44,0-.85-.07-1.24-.22-.39-.15-.67-.35-.87-.63-.22-.35-.3-.8-.23-1.35.07-.54.25-1.27.56-2.19l4.05-12.14c.69-.02,1.36-.06,2-.13.65-.06,1.23-.17,1.75-.31l-5.12,13.86Z"/>
            <path class="cls-1" d="M230.6,109.28c1.29-.9,2.44-1.95,3.43-3.16.99-1.21,1.75-2.32,2.27-3.35l.7.13c-.28.56-.63,1.19-1.05,1.88-.43.69-.97,1.41-1.63,2.16-.66.75-1.47,1.52-2.44,2.31-.83.65-1.57,1.13-2.23,1.45-.66.32-1.31.48-1.94.48s-1.07-.1-1.38-.31c-.32-.21-.47-.49-.47-.84,0-.4.21-.75.62-1.05.41-.3.92-.45,1.53-.45s1.16.08,1.57.25c.41.17.76.33,1.03.5ZM240.55,108.31c.11.54.28.92.52,1.13.23.21.53.31.89.31.41,0,.84-.18,1.28-.55.44-.36.94-1.14,1.49-2.33l.54-1.16h.78l-1.03,2.28c-.39.83-.83,1.48-1.34,1.94-.51.46-1.05.78-1.61.97-.56.19-1.15.28-1.75.28-.85,0-1.6-.21-2.23-.63-.63-.42-1.03-1.17-1.2-2.25l-1.65-11.2c-.11-.54-.28-.92-.52-1.13-.23-.21-.53-.31-.89-.31-.28,0-.56.07-.85.22-.29.15-.59.43-.89.84-.3.42-.65,1.02-1.03,1.81l-.54,1.16h-.78l1.03-2.28c.41-.83.87-1.48,1.36-1.94.5-.46,1.03-.78,1.61-.97.58-.19,1.16-.28,1.73-.28.96,0,1.73.2,2.31.61.58.41.95,1.16,1.11,2.27l1.65,11.2ZM244.02,96.14c-.85.58-1.6,1.26-2.23,2.03-.63.77-1.17,1.55-1.61,2.33-.44.78-.81,1.5-1.11,2.14l-.83-.03c.19-.42.41-.88.66-1.39.25-.51.55-1.05.91-1.61.36-.56.79-1.14,1.3-1.74.51-.59,1.09-1.17,1.75-1.74.8-.69,1.51-1.18,2.15-1.47.63-.29,1.29-.44,1.98-.44.52,0,.96.1,1.3.31.34.21.52.49.52.84,0,.4-.2.75-.6,1.05-.4.3-.93.45-1.59.45-.61,0-1.13-.09-1.57-.27-.44-.18-.78-.34-1.03-.48Z"/>
            <path class="cls-1" d="M265.36,99.93c-.99,2.09-1.94,3.85-2.85,5.29-.91,1.44-1.81,2.6-2.7,3.47-.89.88-1.8,1.51-2.72,1.91-.92.4-1.88.59-2.87.59-1.21,0-2.09-.21-2.64-.63-.55-.42-.83-.98-.83-1.69s.19-1.51.58-2.41l4-9.13c.27-.63.37-1.11.29-1.44-.08-.33-.4-.5-.95-.5s-1.04.22-1.55.66c-.51.44-1.05,1.28-1.63,2.53l-.54,1.16h-.78l1.03-2.28c.41-.88.9-1.54,1.47-2,.56-.46,1.16-.78,1.78-.95.62-.18,1.2-.27,1.75-.27,1.21,0,2.02.21,2.42.64.4.43.55.98.45,1.64-.1.67-.31,1.37-.64,2.1l-3.92,8.95c-.77,1.75-.47,2.63.91,2.63.66,0,1.36-.22,2.11-.67.74-.45,1.5-1.09,2.27-1.94.77-.84,1.53-1.86,2.29-3.03.76-1.18,1.49-2.49,2.19-3.94.7-1.45,1.34-3.01,1.92-4.68l-.83,4ZM265.24,108.09c-.19.56-.28,1.03-.27,1.39.01.37.3.55.85.55.61,0,1.16-.24,1.67-.74.51-.49,1.03-1.31,1.55-2.46l.54-1.16h.78l-1.03,2.28c-.39.88-.86,1.54-1.42,2-.56.46-1.16.78-1.78.95-.62.18-1.22.27-1.8.27-.44,0-.85-.07-1.24-.22-.39-.15-.67-.35-.87-.63-.22-.35-.3-.8-.23-1.35.07-.54.25-1.27.56-2.19l4.05-12.14c.69-.02,1.36-.06,2-.13.65-.06,1.23-.17,1.75-.31l-5.12,13.86Z"/>
            <path class="cls-1" d="M277.38,110.75h-3.59l4.95-13.42c.27-.71.36-1.21.27-1.5-.1-.29-.38-.44-.85-.44-.61,0-1.16.24-1.65.72-.5.48-1.02,1.3-1.57,2.47l-.54,1.16h-.78l1.03-2.28c.41-.88.9-1.54,1.47-2,.56-.46,1.16-.78,1.78-.95.62-.18,1.2-.27,1.75-.27.83,0,1.41.14,1.75.41.34.27.54.63.58,1.06.04.44,0,.91-.12,1.42-.12.51-.27,1.01-.43,1.49l-4.05,12.14ZM287.99,95.02c-.63,0-1.29.22-1.96.67-.67.45-1.36,1.09-2.06,1.94-.7.84-1.4,1.86-2.11,3.03-.7,1.18-1.39,2.49-2.06,3.93-.67,1.44-1.33,2.99-1.96,4.66l1.03-4c.91-2.04,1.75-3.76,2.54-5.16.78-1.4,1.56-2.53,2.33-3.39.77-.87,1.56-1.49,2.37-1.88.81-.39,1.67-.58,2.58-.58.77,0,1.37.17,1.8.5.43.33.64.76.64,1.28,0,.42-.14.8-.41,1.14-.28.34-.63.62-1.05.81-.43.2-.9.3-1.42.3-.47,0-.86-.1-1.18-.3-.32-.2-.47-.47-.47-.83,0-.33.08-.63.25-.89.17-.26.39-.48.66-.67.27-.19.59-.33.95-.44-.06-.04-.12-.07-.19-.09-.07-.02-.16-.03-.27-.03Z"/>
            <path class="cls-1" d="M292.61,115.16c1.18-.48,2.44-1.13,3.78-1.95,1.33-.82,2.72-1.93,4.15-3.33,1.62-1.56,3.1-3.32,4.44-5.27,1.33-1.95,2.26-3.91,2.79-5.9-.44-.19-.92-.42-1.42-.7-.51-.28-.93-.61-1.26-1-.33-.39-.48-.82-.45-1.3.05-.48.27-.84.66-1.09.39-.25.87-.38,1.45-.38.74,0,1.29.21,1.63.64.34.43.52,1.06.52,1.89,0,1.06-.23,2.21-.7,3.43-.47,1.22-1.09,2.46-1.88,3.71-.78,1.25-1.66,2.46-2.62,3.61-.96,1.16-1.94,2.21-2.93,3.14-.44.42-1.05.94-1.82,1.56-.77.63-1.69,1.27-2.75,1.92-1.06.66-2.25,1.22-3.57,1.7-.83.29-1.53.49-2.13.61-.59.11-1.08.17-1.47.17-.55,0-1.03-.11-1.45-.33-.41-.22-.62-.54-.62-.95,0-.46.23-.81.68-1.05.45-.24.97-.36,1.55-.36.63,0,1.23.13,1.8.38.56.25,1.11.53,1.63.84ZM301.65,109.5l-2.77,2.28-3.14-14.39c-.14-.65-.3-1.09-.5-1.35-.19-.25-.47-.38-.83-.38-.3,0-.65.18-1.03.55-.39.37-.85,1.14-1.4,2.33l-.54,1.16h-.78l1.03-2.28c.58-1.27,1.29-2.12,2.15-2.55.85-.43,1.72-.64,2.6-.64s1.51.2,1.98.61c.47.41.8,1.16.99,2.27l2.23,12.39Z"/>
            <path class="cls-1" d="M365.07,89.01c-1.02.5-2.09.84-3.2,1.02-1.11.18-2.44.27-3.98.27-1.38,0-2.72-.06-4.03-.19-1.31-.13-2.6-.27-3.88-.44-1.28-.17-2.53-.31-3.76-.44-1.23-.13-2.44-.19-3.65-.19-.85,0-1.73.03-2.62.09-.89.06-1.56.21-2,.44.22.21.4.48.54.83.14.34.21.67.21.99,0,.42-.17.82-.5,1.22-.33.4-.85.59-1.57.59-.61,0-1.06-.15-1.36-.44-.3-.29-.45-.67-.45-1.13,0-.42.15-.85.45-1.3.3-.45.88-.83,1.73-1.14.63-.23,1.31-.4,2.04-.5.73-.1,1.42-.17,2.06-.19.65-.02,1.12-.03,1.42-.03,1.93,0,3.72.1,5.39.3,1.67.2,3.32.4,4.98.59,1.65.2,3.41.3,5.29.3,1.46,0,2.68-.08,3.65-.25.98-.17,1.97-.48,2.99-.94l.25.53ZM347.98,89.14c.5.04.93.08,1.3.13.37.04.74.08,1.11.13.37.04.8.08,1.3.13l-6.19,17.61c-.28.79-.39,1.4-.33,1.83.05.43.35.72.89.89.54.17,1.38.26,2.54.28l-.17.63c-.72-.04-1.62-.07-2.72-.08-1.1-.01-2.24-.02-3.43-.02s-2.32,0-3.41.02c-1.09.01-1.96.04-2.62.08l.17-.63c1.16-.04,2.06-.15,2.7-.33.65-.18,1.16-.48,1.53-.91.37-.43.71-1.02,1.01-1.77l6.32-17.99ZM364.7,86.32c.69-.02,1.36-.06,2-.13.65-.06,1.23-.17,1.75-.31l-9.21,24.87h-3.59l9.04-24.43ZM360.41,106.12c1.05-2.19,2.04-4.05,2.99-5.57.95-1.52,1.9-2.75,2.85-3.68.95-.93,1.91-1.6,2.89-2.02.98-.42,2-.63,3.08-.63,1.24,0,2.11.22,2.6.66.5.44.73,1.02.7,1.74-.03.72-.22,1.5-.58,2.33l-4,9.13c-.11.27-.21.56-.29.86-.08.3-.06.56.06.77.12.21.42.31.89.31.52,0,1.04-.22,1.55-.66.51-.44,1.05-1.28,1.63-2.53l.54-1.16h.78l-1.03,2.28c-.39.88-.87,1.54-1.45,2-.58.46-1.17.78-1.78.95-.61.18-1.2.27-1.78.27-1.1,0-1.87-.19-2.31-.56-.44-.38-.63-.9-.56-1.56.07-.67.28-1.42.64-2.25l3.92-8.95c.17-.38.3-.77.39-1.17.1-.41.06-.75-.1-1.03-.17-.28-.56-.42-1.2-.42-.88,0-1.82.37-2.81,1.09-.99.73-2,1.76-3.01,3.08-1.02,1.32-2,2.89-2.95,4.71-.95,1.81-1.82,3.82-2.62,6.01l.95-4Z"/>
            <path class="cls-1" d="M383.61,110.19c.66,0,1.42-.32,2.27-.95.85-.64,1.72-1.5,2.6-2.58.88-1.08,1.69-2.31,2.44-3.69.74-1.38,1.33-2.8,1.78-4.29l-.7,3.38c-1.05,2.21-2.09,3.99-3.14,5.33-1.05,1.35-2.11,2.31-3.18,2.91-1.07.59-2.16.89-3.26.89-1.29,0-2.26-.35-2.91-1.06-.65-.71-.97-1.62-.97-2.72,0-1,.22-2.09.66-3.27.44-1.18,1.05-2.35,1.84-3.52.78-1.17,1.69-2.23,2.7-3.19,1.02-.96,2.13-1.73,3.32-2.31,1.2-.58,2.42-.88,3.65-.88.96,0,1.7.36,2.21,1.08.51.72.61,1.73.31,3.02l-.45.19c.19-1.11.1-2-.29-2.67-.39-.68-1.02-1.02-1.9-1.02-.72,0-1.47.27-2.25.8-.78.53-1.54,1.25-2.27,2.16-.73.91-1.39,1.92-1.98,3.05-.59,1.13-1.06,2.29-1.4,3.49-.34,1.2-.52,2.35-.52,3.46,0,.9.13,1.52.39,1.88.26.35.61.53,1.05.53ZM394.01,94.67c.66-.02,1.32-.06,1.98-.13.66-.06,1.27-.17,1.82-.31l-5.16,13.83c-.06.19-.13.43-.23.74-.1.3-.1.58,0,.83.1.25.38.38.85.38.55,0,1.09-.23,1.61-.69.52-.46,1.05-1.29,1.57-2.5l.5-1.16h.78l-1.03,2.28c-.39.83-.85,1.49-1.38,1.96-.54.47-1.09.8-1.67,1-.58.2-1.14.3-1.69.3-1.07,0-1.83-.27-2.27-.81-.36-.48-.45-1.04-.29-1.67.17-.64.36-1.28.58-1.92l4.05-12.11Z"/>
            <path class="cls-1" d="M404.75,108.09c-.25.69-.19,1.18.19,1.49.37.3.86.45,1.47.45s1.22-.2,1.84-.59c.62-.4,1.23-1.24,1.84-2.53l.58-1.22h.78l-.87,1.97c-.61,1.36-1.38,2.28-2.33,2.78-.95.5-2.06.75-3.32.75-1.13,0-1.99-.18-2.58-.55-.59-.36-.94-.88-1.05-1.55-.11-.67,0-1.43.33-2.28l6.4-16.89c.66-.02,1.31-.06,1.96-.13.65-.06,1.23-.17,1.75-.31l-6.98,18.61ZM415.24,94.67l-.12.63h-12.84l.21-.63h12.76Z"/>
            <path class="cls-1" d="M456.61,104.18c-.17.33-.33.72-.5,1.16-.16.44-.34.91-.54,1.41-.14.4-.32.96-.54,1.7-.22.74-.41,1.51-.58,2.3-1.4-.04-2.99-.07-4.75-.08-1.76-.01-3.33-.02-4.71-.02h-2.33c-.95,0-1.98,0-3.08.02-1.1.01-2.22.02-3.34.03-1.13.01-2.19.03-3.18.05l.21-.63c.94-.04,1.67-.13,2.19-.25.52-.13.93-.38,1.22-.75.29-.38.57-.94.85-1.69l5.49-15.51c.27-.77.39-1.34.35-1.7-.04-.36-.28-.61-.7-.75-.43-.14-1.11-.21-2.04-.23l.21-.63c.58.02,1.33.04,2.27.06.94.02,1.94.03,3.01.03.96,0,1.92-.01,2.87-.03.95-.02,1.74-.04,2.37-.06l-.21.63c-.94.02-1.67.1-2.19.23-.52.14-.94.39-1.24.75-.3.37-.59.93-.87,1.7l-5.49,15.51c-.28.75-.39,1.31-.35,1.69.04.38.28.62.72.74.44.11,1.13.17,2.06.17h3.01c1.73,0,3.12-.19,4.15-.56s1.9-.99,2.6-1.85c.7-.85,1.4-2,2.08-3.44h.95Z"/>
            <path class="cls-1" d="M465.23,97.33c.58-1.29.39-1.94-.58-1.94-.63,0-1.2.26-1.69.78-.5.52-1.02,1.32-1.57,2.41l-.58,1.16h-.78l1.07-2.28c.41-.88.91-1.54,1.49-2,.58-.46,1.19-.78,1.84-.95.65-.18,1.25-.27,1.8-.27.88,0,1.53.14,1.94.41.41.27.66.63.74,1.06s.05.91-.08,1.42c-.14.51-.32,1.01-.54,1.49l-4.42,9.48c-.28.6-.37,1.08-.27,1.42.1.34.41.52.93.52.55,0,1.07-.23,1.57-.69.5-.46,1.05-1.29,1.65-2.5l.58-1.16h.78l-1.07,2.28c-.39.81-.85,1.45-1.4,1.92-.55.47-1.14.8-1.78,1-.63.2-1.27.3-1.9.3-1.18,0-1.98-.21-2.39-.63-.41-.42-.56-.96-.45-1.63.11-.67.34-1.38.7-2.13l4.42-9.48ZM466.51,88.98c.14-.54.5-1.01,1.09-1.41.59-.4,1.23-.59,1.92-.59s1.27.2,1.67.59c.4.4.53.87.39,1.41-.14.54-.5,1.01-1.09,1.41-.59.4-1.25.59-1.96.59s-1.23-.2-1.63-.59c-.4-.4-.53-.87-.39-1.41Z"/>
            <path class="cls-1" d="M473.62,110.28c.22.08.46.15.72.2.26.05.65.08,1.18.08,1.21,0,2.21-.28,2.99-.83.78-.55,1.18-1.35,1.18-2.39,0-.65-.16-1.29-.47-1.92-.32-.64-.87-1.37-1.67-2.21-.63-.67-1.24-1.35-1.82-2.05-.58-.7-.87-1.53-.87-2.49,0-.9.29-1.67.87-2.33.58-.66,1.36-1.17,2.33-1.55.98-.38,2.04-.56,3.2-.56.8,0,1.58.07,2.35.22.77.15,1.41.41,1.92.8.51.39.76.95.76,1.7,0,.19-.06.41-.19.67-.12.26-.32.48-.6.67-.28.19-.65.28-1.11.28-.44,0-.83-.12-1.16-.36-.33-.24-.5-.56-.5-.95,0-.38.1-.74.31-1.08.21-.34.49-.68.85-1.02-.52-.25-1.21-.38-2.06-.38-1.02,0-1.87.26-2.56.78-.69.52-1.03,1.25-1.03,2.19,0,.48.1.9.29,1.27.19.37.47.75.85,1.14.37.4.82.9,1.34,1.5.69.79,1.27,1.55,1.73,2.28.47.73.7,1.5.7,2.31,0,.96-.32,1.81-.97,2.55-.65.74-1.51,1.32-2.58,1.74-1.07.42-2.26.63-3.55.63-.94,0-1.83-.1-2.68-.31-.85-.21-1.55-.54-2.09-.99-.54-.45-.8-1.05-.8-1.8,0-.29.12-.6.35-.92.23-.32.65-.48,1.26-.48.66,0,1.13.2,1.4.61.27.41.41.86.41,1.36,0,.33-.03.63-.1.89-.07.26-.13.51-.19.74Z"/>
            <path class="cls-1" d="M491.91,108.09c-.25.69-.19,1.18.19,1.49.37.3.86.45,1.47.45s1.22-.2,1.84-.59c.62-.4,1.23-1.24,1.84-2.53l.58-1.22h.78l-.87,1.97c-.61,1.36-1.38,2.28-2.33,2.78-.95.5-2.06.75-3.32.75-1.13,0-1.99-.18-2.58-.55-.59-.36-.94-.88-1.05-1.55-.11-.67,0-1.43.33-2.28l6.4-16.89c.66-.02,1.31-.06,1.96-.13.65-.06,1.23-.17,1.75-.31l-6.98,18.61ZM502.39,94.67l-.12.63h-12.84l.21-.63h12.76Z"/>
            <path class="cls-1" d="M504.25,103.65c1.54-.4,2.94-.79,4.19-1.17,1.25-.39,2.25-.8,2.99-1.24.99-.6,1.78-1.33,2.35-2.19.58-.85.87-1.79.87-2.82,0-.6-.06-.99-.17-1.16-.11-.17-.28-.25-.5-.25-.69,0-1.43.23-2.23.69-.8.46-1.58,1.09-2.35,1.89-.77.8-1.48,1.72-2.13,2.74-.65,1.02-1.16,2.11-1.55,3.27-.39,1.16-.58,2.31-.58,3.46,0,1.06.26,1.83.78,2.3.52.47,1.21.7,2.06.7.99,0,2.04-.23,3.14-.69,1.1-.46,2.17-1.27,3.22-2.44l.66.25c-.52.69-1.21,1.36-2.06,2-.85.65-1.81,1.17-2.87,1.58-1.06.41-2.18.61-3.37.61-1.1,0-2.06-.17-2.89-.5-.83-.33-1.46-.83-1.9-1.49-.44-.66-.66-1.46-.66-2.42,0-.9.22-1.9.66-3.02.44-1.12,1.07-2.23,1.88-3.35.81-1.12,1.78-2.14,2.91-3.08,1.13-.94,2.38-1.69,3.76-2.25,1.38-.56,2.85-.84,4.42-.84.85,0,1.58.17,2.17.52.59.34.89.86.89,1.55,0,.83-.32,1.61-.97,2.33-.65.72-1.5,1.38-2.56,1.97-1.06.59-2.21,1.12-3.45,1.58-1.24.46-2.45.86-3.63,1.19-1.18.33-2.23.61-3.14.81l.04-.53Z"/>
            <path class="cls-1" d="M523.53,110.75h-3.59l4.95-13.42c.11-.25.2-.53.27-.83.07-.3.05-.56-.06-.78-.11-.22-.39-.33-.83-.33-.61,0-1.14.22-1.61.67-.47.45-.99,1.29-1.57,2.52l-.54,1.16h-.78l1.03-2.28c.61-1.31,1.36-2.18,2.25-2.6.89-.42,1.78-.63,2.66-.63.83,0,1.42.14,1.8.41.37.27.58.62.62,1.05.04.43,0,.9-.12,1.41-.12.51-.27,1.02-.43,1.52l-4.05,12.14ZM525.43,104.24c.96-1.88,1.9-3.45,2.81-4.72.91-1.27,1.8-2.3,2.68-3.08.88-.78,1.78-1.35,2.7-1.69.92-.34,1.88-.52,2.87-.52,1.29,0,2.18.23,2.66.7.48.47.69,1.06.64,1.78-.06.72-.25,1.47-.58,2.24l-4,9.13c-.25.56-.35,1.03-.31,1.39.04.37.36.55.97.55.52,0,1.04-.22,1.55-.66.51-.44,1.05-1.28,1.63-2.53l.54-1.16h.78l-1.03,2.28c-.39.88-.86,1.54-1.42,2-.56.46-1.16.78-1.78.95-.62.18-1.22.27-1.8.27-.66,0-1.2-.08-1.63-.25-.43-.17-.75-.39-.97-.66-.3-.38-.4-.87-.29-1.47.11-.6.33-1.27.66-2l3.92-8.95c.14-.29.25-.64.35-1.05.1-.41.08-.77-.06-1.09-.14-.32-.54-.48-1.2-.48s-1.36.22-2.11.66c-.74.44-1.51,1.06-2.31,1.86-.8.8-1.58,1.76-2.35,2.88-.77,1.12-1.51,2.35-2.21,3.69-.7,1.35-1.34,2.78-1.92,4.3l1.2-4.38Z"/>
            <path class="cls-1" d="M544.88,110.28c.22.08.46.15.72.2.26.05.65.08,1.18.08,1.21,0,2.21-.28,2.99-.83.78-.55,1.18-1.35,1.18-2.39,0-.65-.16-1.29-.47-1.92-.32-.64-.87-1.37-1.67-2.21-.63-.67-1.24-1.35-1.82-2.05-.58-.7-.87-1.53-.87-2.49,0-.9.29-1.67.87-2.33.58-.66,1.36-1.17,2.33-1.55.98-.38,2.04-.56,3.2-.56.8,0,1.58.07,2.35.22.77.15,1.41.41,1.92.8.51.39.76.95.76,1.7,0,.19-.06.41-.19.67-.12.26-.32.48-.6.67-.28.19-.65.28-1.11.28-.44,0-.83-.12-1.16-.36-.33-.24-.5-.56-.5-.95,0-.38.1-.74.31-1.08.21-.34.49-.68.85-1.02-.52-.25-1.21-.38-2.06-.38-1.02,0-1.87.26-2.56.78-.69.52-1.03,1.25-1.03,2.19,0,.48.1.9.29,1.27.19.37.47.75.85,1.14.37.4.82.9,1.34,1.5.69.79,1.27,1.55,1.73,2.28.47.73.7,1.5.7,2.31,0,.96-.32,1.81-.97,2.55-.65.74-1.51,1.32-2.58,1.74-1.07.42-2.26.63-3.55.63-.94,0-1.83-.1-2.68-.31-.85-.21-1.55-.54-2.09-.99-.54-.45-.8-1.05-.8-1.8,0-.29.12-.6.35-.92.23-.32.65-.48,1.26-.48.66,0,1.13.2,1.4.61.27.41.41.86.41,1.36,0,.33-.03.63-.1.89-.07.26-.13.51-.19.74Z"/>
          </g>
        </g>
        <path class="cls-1" d="M127.98,92.36c-1.96-12.02-10.71-20.51-22.72-22.82-1.62-.31-3.25-.55-4.88-.83.54-.41,1.09-.58,1.64-.75,6.04-1.85,11.21-4.98,14.71-10.38,6.01-9.29,3.83-24.52-8.68-31.19-5.45-2.91-11.34-4.22-17.44-4.3-11.81-.16-23.62-.09-35.42-.11-.28,0-.56.07-.87.12v2.46c.15.11.18.15.21.16.21.04.41.08.62.1,4.16.36,6.98,2.57,8.17,6.49.66,2.19.95,4.55,1,6.85.14,6.22.06,12.44.06,18.66,0,16.68-.04,33.35.03,50.03.02,4.79-1.83,8.51-5.64,11.31-3.95,2.9-8.41,3.98-13.26,3.74-7.95-.4-13.95-3.94-17.8-10.95-2.77-5.05-3.8-10.56-3.94-16.23-.15-6.01-.11-12.02-.13-18.03-.04-12.4-.08-24.8-.06-37.2,0-3.17.26-6.34,1.44-9.35,1.13-2.9,3.17-4.82,6.31-5.2,1.87-.22,1.76-.27,1.74-2.13,0-.24-.07-.48-.11-.71H0v2.63c.34.04.59.07.84.1,4.08.38,7.01,2.44,8.15,6.36.76,2.6,1.17,5.39,1.19,8.1.09,16.25.06,32.5,0,48.76-.02,6.71.32,13.35,2.69,19.73,3.12,8.39,8.49,14.72,17,17.89,11.48,4.26,22.51,2.57,33.12-3.1.42-.22.8-.5,1.42-.89-.78,2.47-2.7,3.62-4.31,5.26.48.04.76.08,1.03.08,11.09.05,22.18.16,33.27.11,5.09-.02,10.12-.75,14.93-2.53,14.37-5.3,21.07-17.41,18.65-32.22ZM77.52,26.25s.11-.14.17-.14c5.02-.04,10.05-.29,15.01.93,8.23,2.03,12.62,7.9,13.84,15.8.56,3.58.44,7.17-.36,10.71-1.54,6.74-5.76,10.89-12.38,12.7-5.31,1.45-10.73.94-16.27,1.06V26.25ZM113.05,107.59c-2.47,7.91-7.89,12.66-16.07,14.27-4.35.86-8.74.78-13.14.8-2.06,0-4.12,0-6.27,0v-51.41c6.61.13,13.15-.41,19.52,1.3,8.13,2.18,13.57,7.25,16.13,15.33,2.09,6.59,1.86,13.2-.17,19.7Z"/>
      </g>
    </g>
  </g>
</svg>