<?xml version="1.0" encoding="UTF-8"?>
<svg xmlns="http://www.w3.org/2000/svg" version="1.1" viewBox="0 0 800 676.08">
  <defs>
    <style>
      .cls-1 {
        fill: #fff;
      }

      .cls-2 {
        display: none;
      }
    </style>
  </defs>
  <!-- Generator: Adobe Illustrator 28.7.8, SVG Export Plug-In . SVG Version: 1.2.0 Build 200)  -->
  <g>
    <g id="Layer_1" class="cls-2">
      <g>
        <path class="cls-1" d="M-112-167.28c341.33,0,682.67,0,1024,0v1024c-341.33,0-682.67,0-1024,0,0-341.33,0-682.67,0-1024ZM356.27,131.65c.58.44.7.6.84.63.81.15,1.63.33,2.45.4,16.39,1.41,27.5,10.1,32.19,25.57,2.61,8.61,3.74,17.94,3.94,26.97.54,24.49.24,49,.24,73.49.01,65.66-.14,131.33.1,196.99.07,18.85-7.21,33.52-22.22,44.52-15.55,11.4-33.11,15.68-52.22,14.73-31.3-1.57-54.94-15.5-70.08-43.13-10.89-19.87-14.97-41.57-15.51-63.91-.58-23.65-.43-47.32-.49-70.99-.14-48.83-.31-97.66-.24-146.5.02-12.5,1.03-24.98,5.66-36.81,4.47-11.43,12.47-18.99,24.85-20.48,7.35-.89,6.93-1.08,6.85-8.4,0-.95-.29-1.9-.43-2.79h-129.78v10.35c1.34.16,2.32.29,3.3.38,16.05,1.49,27.59,9.6,32.08,25.03,2.98,10.23,4.61,21.22,4.67,31.88.37,64,.22,128,0,191.99-.09,26.44,1.27,52.59,10.61,77.71,12.28,33.03,33.41,57.98,66.94,70.43,45.22,16.79,88.65,10.1,130.42-12.19,1.64-.88,3.16-1.98,5.58-3.51-3.07,9.72-10.63,14.24-16.95,20.71,1.91.16,2.99.33,4.07.33,43.66.19,87.33.62,130.99.44,20.05-.09,39.84-2.96,58.8-9.95,56.58-20.86,82.96-68.57,73.46-126.86-7.72-47.35-42.16-80.77-89.48-89.88-6.38-1.23-12.81-2.18-19.21-3.25,2.12-1.61,4.29-2.28,6.45-2.94,23.78-7.3,44.16-19.62,57.93-40.89,23.68-36.57,15.08-96.56-34.2-122.82-21.48-11.45-44.65-16.6-68.68-16.93-46.49-.62-92.99-.37-139.49-.45-1.1,0-2.21.29-3.44.46v9.68Z"/>
        <path class="cls-1" d="M447.91,315.54c26.02.51,51.77-1.6,76.87,5.12,32.01,8.57,53.43,28.55,63.52,60.38,8.23,25.96,7.33,51.96-.68,77.59-9.73,31.15-31.05,49.87-63.27,56.2-17.14,3.37-34.43,3.08-51.73,3.16-8.11.03-16.23,0-24.7,0v-202.45Z"/>
        <path class="cls-1" d="M447.69,300.02v-161.69c.17-.14.42-.54.67-.54,19.78-.15,39.58-1.15,59.1,3.66,32.39,8,49.68,31.09,54.51,62.2,2.19,14.1,1.75,28.25-1.42,42.18-6.05,26.55-22.68,42.89-48.77,50.02-20.91,5.72-42.24,3.69-64.09,4.16Z"/>
      </g>
    </g>
    <g id="Layer_2">
      <path d="M645.94,408.2c-7.72-47.35-42.16-80.77-89.48-89.88-6.38-1.23-12.81-2.18-19.21-3.25,2.12-1.61,4.29-2.28,6.45-2.94,23.78-7.3,44.16-19.62,57.93-40.89,23.68-36.57,15.08-96.56-34.2-122.82-21.48-11.45-44.65-16.6-68.68-16.93-46.49-.62-92.99-.37-139.49-.45-1.1,0-2.21.29-3.44.46v9.68c.58.44.7.6.84.63.81.15,1.63.33,2.45.4,16.39,1.41,27.5,10.1,32.19,25.57,2.61,8.61,3.74,17.94,3.94,26.97.54,24.49.24,49,.24,73.49.01,65.66-.14,131.33.1,196.99.07,18.85-7.21,33.52-22.22,44.52-15.55,11.4-33.11,15.68-52.22,14.73-31.3-1.57-54.94-15.5-70.08-43.13-10.89-19.87-14.97-41.57-15.51-63.91-.58-23.65-.43-47.32-.49-70.99-.14-48.83-.31-97.66-.24-146.5.02-12.5,1.03-24.98,5.66-36.81,4.47-11.43,12.47-18.99,24.85-20.48,7.35-.89,6.93-1.08,6.85-8.4,0-.95-.29-1.9-.43-2.79h-129.78v10.35c1.34.16,2.32.29,3.3.38,16.05,1.49,27.59,9.6,32.08,25.03,2.98,10.23,4.61,21.22,4.67,31.88.37,64,.22,128,0,191.99-.09,26.44,1.27,52.59,10.61,77.71,12.28,33.03,33.41,57.98,66.94,70.43,45.22,16.79,88.65,10.1,130.42-12.19,1.64-.88,3.16-1.98,5.58-3.51-3.07,9.72-10.63,14.24-16.95,20.71,1.91.16,2.99.33,4.07.33,43.66.19,87.33.62,130.99.44,20.05-.09,39.84-2.96,58.8-9.95,56.58-20.86,82.96-68.57,73.46-126.86ZM447.25,147.85c.17-.14.42-.54.67-.54,19.78-.15,39.58-1.15,59.1,3.66,32.39,8,49.68,31.09,54.51,62.2,2.19,14.1,1.75,28.25-1.42,42.18-6.05,26.55-22.68,42.89-48.77,50.02-20.91,5.72-42.24,3.69-64.09,4.16v-161.69ZM587.17,468.15c-9.73,31.15-31.05,49.87-63.27,56.2-17.14,3.37-34.43,3.08-51.73,3.16-8.11.03-16.23,0-24.7,0v-202.45c26.02.51,51.77-1.6,76.87,5.12,32.01,8.57,53.43,28.55,63.52,60.38,8.23,25.96,7.33,51.96-.68,77.59Z"/>
    </g>
  </g>
</svg>